<mxfile host="app.diagrams.net" modified="2024-05-25T05:02:54.251Z" agent="Mozilla/5.0 (Windows NT 10.0; Win64; x64) AppleWebKit/537.36 (KHTML, like Gecko) Chrome/125.0.0.0 Safari/537.36" etag="7etlBnx7ugQabKDmIuyb" version="24.4.8" type="device">
  <diagram id="cdb5e136-1861-7ef1-5e76-c57f7e18aa8d" name="ERD Data Structure - Habit Tracker App">
    <mxGraphModel dx="1273" dy="826" grid="0" gridSize="10" guides="1" tooltips="1" connect="1" arrows="1" fold="1" page="1" pageScale="1" pageWidth="1100" pageHeight="730" math="0" shadow="0">
      <root>
        <mxCell id="0" />
        <mxCell id="1" parent="0" />
        <mxCell id="HgpjItm5ChHet3baD9MJ-94" value="" style="rounded=0;whiteSpace=wrap;html=1;fillColor=none;strokeColor=#CCCCCC;fontSize=14;" vertex="1" parent="1">
          <mxGeometry x="6" y="4.23" width="1089" height="719.77" as="geometry" />
        </mxCell>
        <mxCell id="g955npDIXCGvVR-R7ZpQ-38" style="edgeStyle=orthogonalEdgeStyle;rounded=0;orthogonalLoop=1;jettySize=auto;html=1;exitX=1;exitY=0.5;exitDx=0;exitDy=0;entryX=0;entryY=0.5;entryDx=0;entryDy=0;endSize=1;startSize=1;strokeColor=#808080;" parent="1" edge="1">
          <mxGeometry relative="1" as="geometry">
            <mxPoint x="414" y="282" as="targetPoint" />
          </mxGeometry>
        </mxCell>
        <mxCell id="g955npDIXCGvVR-R7ZpQ-39" style="edgeStyle=orthogonalEdgeStyle;rounded=0;orthogonalLoop=1;jettySize=auto;html=1;exitX=1;exitY=0.5;exitDx=0;exitDy=0;entryX=0;entryY=0.5;entryDx=0;entryDy=0;endSize=1;startSize=1;strokeColor=#808080;" parent="1" edge="1">
          <mxGeometry relative="1" as="geometry">
            <mxPoint x="500" y="282" as="targetPoint" />
          </mxGeometry>
        </mxCell>
        <mxCell id="g955npDIXCGvVR-R7ZpQ-41" style="edgeStyle=orthogonalEdgeStyle;rounded=0;orthogonalLoop=1;jettySize=auto;html=1;exitX=1;exitY=0.5;exitDx=0;exitDy=0;entryX=0;entryY=0.5;entryDx=0;entryDy=0;endSize=1;startSize=1;strokeColor=#808080;" parent="1" edge="1">
          <mxGeometry relative="1" as="geometry">
            <mxPoint x="582" y="282" as="targetPoint" />
          </mxGeometry>
        </mxCell>
        <mxCell id="g955npDIXCGvVR-R7ZpQ-42" style="edgeStyle=orthogonalEdgeStyle;rounded=0;orthogonalLoop=1;jettySize=auto;html=1;exitX=1;exitY=0.5;exitDx=0;exitDy=0;entryX=0;entryY=0.5;entryDx=0;entryDy=0;endSize=1;startSize=1;strokeColor=#808080;" parent="1" edge="1">
          <mxGeometry relative="1" as="geometry">
            <mxPoint x="667" y="282" as="targetPoint" />
          </mxGeometry>
        </mxCell>
        <mxCell id="zaqEi0Wex6OZCFu0WV71-2" value="&lt;span style=&quot;font-size: 14px;&quot;&gt;&lt;b style=&quot;font-size: 14px;&quot;&gt;Fraud Detection ETL - Databricks&lt;/b&gt;&lt;/span&gt;" style="text;html=1;align=center;verticalAlign=middle;whiteSpace=wrap;rounded=0;fillColor=#f5f5f5;strokeColor=#666666;fontColor=#333333;fontSize=14;" parent="1" vertex="1">
          <mxGeometry x="433.2766632650158" y="18.152658662092623" width="302.3271794871795" height="32.16123499142367" as="geometry" />
        </mxCell>
        <mxCell id="HgpjItm5ChHet3baD9MJ-2" value="&lt;div style=&quot;font-size: 14px;&quot;&gt;&lt;b style=&quot;font-size: 14px;&quot;&gt;&lt;font style=&quot;font-size: 14px;&quot;&gt;DATA SOURCE&lt;/font&gt;&lt;/b&gt;&lt;/div&gt;" style="text;html=1;align=center;verticalAlign=middle;whiteSpace=wrap;rounded=0;fillColor=#dae8fc;strokeColor=#003f5c;fontSize=14;" vertex="1" parent="1">
          <mxGeometry x="46" y="555" width="229" height="32.16" as="geometry" />
        </mxCell>
        <mxCell id="HgpjItm5ChHet3baD9MJ-11" value="&lt;div style=&quot;font-size: 14px;&quot;&gt;&lt;b style=&quot;font-size: 14px;&quot;&gt;&lt;font style=&quot;font-size: 14px;&quot;&gt;BRONZE&lt;/font&gt;&lt;/b&gt;&lt;/div&gt;" style="text;html=1;align=center;verticalAlign=middle;whiteSpace=wrap;rounded=0;fillColor=#dae8fc;strokeColor=#003f5c;fontSize=14;" vertex="1" parent="1">
          <mxGeometry x="307" y="555" width="229" height="32.16" as="geometry" />
        </mxCell>
        <mxCell id="HgpjItm5ChHet3baD9MJ-14" value="&lt;div style=&quot;font-size: 14px;&quot;&gt;&lt;b style=&quot;font-size: 14px;&quot;&gt;&lt;font style=&quot;font-size: 14px;&quot;&gt;SILVER&lt;/font&gt;&lt;/b&gt;&lt;/div&gt;" style="text;html=1;align=center;verticalAlign=middle;whiteSpace=wrap;rounded=0;fillColor=#dae8fc;strokeColor=#003f5c;fontSize=14;" vertex="1" parent="1">
          <mxGeometry x="569" y="555" width="229" height="32.16" as="geometry" />
        </mxCell>
        <mxCell id="HgpjItm5ChHet3baD9MJ-15" value="&lt;div style=&quot;font-size: 14px;&quot;&gt;&lt;b style=&quot;font-size: 14px;&quot;&gt;&lt;font style=&quot;font-size: 14px;&quot;&gt;GOLD&lt;/font&gt;&lt;/b&gt;&lt;/div&gt;" style="text;html=1;align=center;verticalAlign=middle;whiteSpace=wrap;rounded=0;fillColor=#dae8fc;strokeColor=#003f5c;fontSize=14;" vertex="1" parent="1">
          <mxGeometry x="830" y="555" width="229" height="32.16" as="geometry" />
        </mxCell>
        <mxCell id="HgpjItm5ChHet3baD9MJ-21" value="" style="shape=image;verticalLabelPosition=bottom;labelBackgroundColor=default;verticalAlign=top;aspect=fixed;imageAspect=0;image=data:image/png,iVBORw0KGgoAAAANSUhEUgAAATYAAACjCAMAAAA3vsLfAAAAxlBMVEX///8AAADtPCzf39+IiIiPj4/sIADtOCfa2tru7u69vb2fn59hYWH6+vrtNybtNSPsJQmvr69zc3PsKxTS0tLsKA/sMB375eRZWVnyfXX5xsN/f3/n5+eqqqr09PTwZlz+9vX2q6bHx8dKSkrvVkr97Ov3trIpKSlqamqZmZn72NbuQzP0lY/yeG/zjYbwYlf1oJsSEhI7Ozv6z8z4wLzuSz30nJb3sKz95+bzhH3xbmX2pqEaGhojIyMXFhYwMDDuUUVRT083VGknAAAL7UlEQVR4nO2cCVviOhSGy74UlN1qaQdRRnAbcZur4jj+/z9125ykOVkooDiAyfc89450Cenb0+QsKY5jZWVlZWVlZWVlZWVlZWVlZbUhHZ1vugc7qIMfxeLhYNO92DENnor72ex+43HTHdkpvbR72exeKZvtlX5uui87o6OLdjZbavw4jf/pnt5tuj87ofNfjcjM2hdHjvOzFxldqXj136b7tPUaHRb3omezfUw+1S8b8RBXvBxstlfbrkfAdD1gG0ZXxXiI6/3eYKe2XfShfBYeyvPTLnlo7RCn193fbjbi86Dwuc/CFHGwiV5tuf57jmeC3r7W4bghDknxafCPO7XtGlyTQa1xWZ+z/6lBZoqXf9utLdfveFDba1yN5h9y8AP8kvt/16st190D+LULQnfqBf+yEX6sKGaPzSi7hBn9hiEuzSgNURSz78We2nKD1uCaRPhF0wPVl3gmWGWKHD1Httm+/sIubb8+5JDd/S0a7cFR9//haOUTv6I3O6LRFfHEPhNsnpsX4Y/isT3b+8SFR0F+r7i+Du2GDooRtf1PDO0kpWQctsEpCUGzKw9sIBJWGIgtcfoXxQY63ZFTS0Zic5xjcPoPV3T6ITrtXZyWzMTGnP7uKmU9mitp3zhP+4ZiiywHsmx7S0dLL5AreYos9NBcbCynu2RZT0iCGI3NcX7uQwVh4RCHSoGxDMfmOI+Q17iek9oFDYRSoGMqNux4RB4/QZISaTG0g2SLidgGWTGPcX4qPICy2IOMS4FXBmKLgqt9Mc12fzE3i0SnDaEUOHruGejuHjSySiWKrDPab8g5y/+ei8raowFd5fD1Hd0uEWxyJQoy5L3IlUXbwL0VXWKodBlYVIixkfFKrETRsh6vxxxrAC1Z6fqOirDtPx531aBUiPDhgwgIKl29kpEF0whb7yapW4lPIC3rDQ7AvS2pz/F+48YxUoAtsZ0eHu/rlxDhd+OBrivOGqtWur6ZGDY6UkkLjWBVW1bxUaDS9cvcwhXHxnzZxrPo/nZLJdkj/mCl6xsJY2NrTRsocopg7skGSCpdx47JirGhUYuW/9oYCg7s65ddDdgH42bTCFvpl+YR1Ael7DHGIWkUcZXMixKKcWguDvilOQM+TBpySFo0sQRTp/6Xzr0QX7XSuShQhDAQm35dm+r+0ipNQ+MQm2htsXSxJa3msXTHi6YmyN4t+mFqwU+7ZvcIRrIYpm7ZKY24Lu6NzO5SaVeIE5ilxqFmkTNeMW4wNv37CBSmuqT+po1CUqOxRR6b5u0XyOjuySFpD6fNDcemL7BEMLUhKX/3ykhsA2H9gvJmX6SfOGDQvOlnIrZRsSvEUSO5eCxooHuv9HnPPGxRcCV5FtJSBazf9C1moaDw18TVlKOi+s7enLeDtF4xzL/tf9DT7VLkgdF1akiahYIHUCUVYzDq7Rn5cxc0jpKAiCEo+6yDa16VlArW4Hb/aup5sFDwhVYEB+iAT6z5/Taig/2zUj3ORjCPsupYRyeOZd4H/M7S/mQFuL/ttjKzsjVu9iXmpLYirG0jMJWKyyMpKJhbJRXFKnlioaqxJ0UNNCR9NrdKKuu+1FPWtp2fKoVT7c9dGK2brhqUIrGQ1PTXlhWN0kZ7+q73vJ+7MFoH83wLUnEpmeveLpJuORvziY12bxeJLp7kQakuArNSJC7VhXhfXMxrpRXNCcWVUqiSKkvHrbS6e4C31x7sj/OsJvj9u7TXYqy0Ist3e12zFwF+QFFcsOCVPyutzm3MbmVlZWVlZWVlZWVlZWVlZWVlZWVlZbXTqjSr1Wqz/AUt90nL/ZU6U+0sOqRDWg0/3q31qJyJlf+Clpuk5eoKZxSi42eV9GN80mruUz1bgwBb4QtaXhlblZxwln5QfgexhURLtrwytlpmCSQ7iK1Ojh0v2fLK2E4AW/rwtrPYWku2vDK2AmBLL+JbbErzZ/EJzfSDLDZVk1prkQdisX1IFtuHZLF9SBvEVg7yvu/CKKLB1nF9Px/QQaZO/4v/VyHH1sgnNN/Vh5P4hLJ0AsZGv1GYJJMDowbcQt8RfyKPHtOJTyyg4E/BVsfd6Tf5la1X9ck0Q5UPVWwVn+3NFOrMc6+y7nLdshP6LbZp5kYfJ+TP+DI5tuCMHeLzENVl1x+SBobCXQGVx/z7fEpKwha+wm7SbueEHT1ZN7WqcPFVGZsr7O4sxiZsf81psPXf8CET8ZtyTge2q9jCmviN41DFFs4QtQI6eLre5IQvdiUT5ARsUk8zw2E6tvqttDnnStiGOemIdwFbn+1WsHUyiqoytrnUMouCjc9Ri24LxuapXWX91WN70x6OsclcM5kTjK3JWpCxDVP7Adjq9AklSZOyfPCCVMoKaiZteq3WCfoKwMbR1FpjfL1Rd13P8+gZtehPj8yniXHOohMwwrLwZRG8cYsbso+wJZKw9ZMdr7WxR0fjiSNgE6jRW17r9HPU7E7WRS1kPYHprc57TrCx+3UL9l3hFJkXQT5wB4SNkx4MJHxykLDl4cKG7E50JGye2wz6IrY38dR+3BeX39ocotZHfRtz5rO1uT70svh1h6x3BNsJ+psoGZZoD2S/je7lUWTyZAnYuLdA7YA84Ak2jz1NCBs994xPvKEXkH8TbPUzgRqY5xA+RAYQfIoUFjU2nPipzziqskyNPyp6bFWZGh/HMTacFqfcYnNj2PhdQNjAkGaaZAjDJlGjt5hZWHWN70IEpOWpsA2x8rklJGqmYfOUu8DcNoxNfFbgOY1HN4rtje/j2Dq8FVl5CkuiRu/w7AuKDHCZkvXWEmxniSEgvaVgU40p2cixvYm7AUic+KbYhnwfx1bQ3BAqwBbcKl9OjdddO7g/pF2p2SHDBo/wTDrHnY8NDFWer3wJmzuvE67yfRzbu0yUS3CE8C2bsI3eeutawOVW2lph2MraO9yZj62a2ClWVcIme51jth+w+UpXYmxg+NrxCWMTbwlygDwt8Y8pTHoliF08mJ0czFXmY4OhUk7GdiRsstM5YYbkKqdzbOCnaa9CsDZh8Aux43i7Un02TV+DTfaOVsSGzWJ1bNKII4RX6zI4wCaPRSHD1hGYMAnzuu4hlTkPJWxyZgx8xw7Dhp9hju11IbYWjJHSkBO6KLZZl71ldJ3pMGzQaWniE3ONIraO1noLEjb5IX5jVpKG7UTZlyhPbxb1nJTZth+woPFdd/oHdIIRMPkMG53jcinniNjgkzwzzyRsknWD9f5x0rEBG9/RiPltzC2UZ+pIfZqmW1MsP9HYNXSVYGtprIf6nQK25C4CUnH5CL0Y5O6KNlNLyKdhG86/bh6T0myObgxrzd3zAfU5okQoDh0KiEBTcRv5kIQZAUfERO8CxvYHt1fll5qGjY4nuhwGyoDQvidjWCEZYcrqlXxC74pds2wOQfkqc0uSkAI2/hwjRqDKHxVb5pb7X5Taa/x3KjY6J3po7wSMByeO4KAptO+iK+us09qSzFCN3qBOkuMvoIvK+KFwkQjbu2gELBovUDBBcoKYOKKnhz7+nIqNEslM2fDQfKXH4jQlvR7SH/iTTkBgDWtz3ZLk7kmhGeQTaOzBTTKJ3qQZ+FO+m2FjAYyfz/vxKYmDOXabLs+2KWnKqR80J0nquIaYz8GGbllr4hY83qqQFKdf4fNL84ZhZfhO/pTjoU9ITVELSfFXZfdMwNZHe2oOH8qU9uTsLtarswQ2uTIACuUSDIUVcPvkWmeFVuY2EUowocxtWBV7gGoRNZkjXI9cgmlKye/Ma7gUNg23P/HBUsGPL+6SSz3LVsGXU0toO5ALfmNh99CRsDm8AAGXF+KKRGaqK/gF+Ajuny7CphRhwNORsDEji3yV3BQfvV5quAZLpgZ57e6Q22M8NcjYuBGwWa7KLbTg4CghiVn7vPpyy2e3yRxsaPbEhtqiA7y8dpcZWR33LXO2xhQIUz8Ye543Dog3Wc/Fwo5l3413t5pkegzJbiESGLqFwsRF6wvKk7iW5QPbCjmhLp5aCVrxN7p4buMHJiJbhPmvTPoStV2fe1ol149Er6DqR0fXJl+x8N3KysrKysrKysrKysrKyspqR/U/NKAAd1jIJBUAAAAASUVORK5CYII=;fontSize=14;" vertex="1" parent="1">
          <mxGeometry x="618.5600000000001" y="641" width="136.94" height="72" as="geometry" />
        </mxCell>
        <mxCell id="HgpjItm5ChHet3baD9MJ-84" style="edgeStyle=orthogonalEdgeStyle;rounded=0;orthogonalLoop=1;jettySize=auto;html=1;entryX=0;entryY=0.5;entryDx=0;entryDy=0;strokeColor=#999999;fontSize=14;" edge="1" parent="1">
          <mxGeometry relative="1" as="geometry">
            <mxPoint x="468" y="346" as="sourcePoint" />
            <mxPoint x="657.6600000000003" y="415.6399999999999" as="targetPoint" />
            <Array as="points">
              <mxPoint x="565" y="347" />
              <mxPoint x="565" y="416" />
            </Array>
          </mxGeometry>
        </mxCell>
        <mxCell id="HgpjItm5ChHet3baD9MJ-60" value="" style="group;fontSize=14;" vertex="1" connectable="0" parent="1">
          <mxGeometry x="90.23999999999998" y="94.30000000000001" width="144" height="90.16000000000001" as="geometry" />
        </mxCell>
        <mxCell id="HgpjItm5ChHet3baD9MJ-16" value="" style="shape=image;verticalLabelPosition=bottom;labelBackgroundColor=default;verticalAlign=top;aspect=fixed;imageAspect=0;image=data:image/png,iVBORw0KGgoAAAANSUhEUgAAAOEAAADhCAMAAAAJbSJIAAAAtFBMVEX///8QfEGXlZOLv4qsqqmSkI7q6urV1NOwr60Acy6YlpWTkY8AdTTV5dynxLGoyLTE2syFvITc3Nvk5OTCwcDV59S1zb3P39WCu4EAcSoAeTy417eQwo/i7uLz+PPu9e6jy6LK4Mk5jFvN4s2v0q7f7d+mpKKOuZ5KlGgrhlGbwKmBsZMYgEe91sfA27+cyJt3q4tcnHW6ubiIn49zjHpUmG8ziVdrpYF7rY51mIFjiG/LysnpJfGaAAAIfklEQVR4nO2dbUPiOBDHQegqD552V7QtUMqCqLsu6N7tenf7/b/X9REz7SRt1maSevm/04aWH5NkMpMh9HpWVlZWVlZWVlZWVlaa9fFsfKJWu6sPOgF3zkQx4MnJxLnSB3iini+RM9QFeEYDqA/xg5M8fDxUp51mxKvYhBOlYyT9DMcTbYhJJ3WUPuFTTOh8PHN0IZ4lH7DSJ2SEvaEuK5IR9oaarEhHmCOeKX0YIkJCTR2VklAPIimhFkRaQh2IxIQ5IuV0Q01Ib0VyQnIr0hNSI2ogJEbUQdjbUY5FLYSkVtRDmFuRBFETIaHT0EVI11G1EZIh6iOkQtRISDTd6CSksaJWQhIr6iWksKJmQgIr6iZUb0XthMqtqJ9QNaIBhIoRTSBUi2gEoVJEMwhVIhpCqBDRFEJ1iMYQKkM0h1AVokGEihBNIlSDaBRhjvi91eerJ0zqaRpX7GSIDT+PZlJP2EsLFE4bNh4m1VO7Nh9PQPg9tUtDZfVhbT6egLDn1BX1leW0WY1KQfhJFrFzhL0PO8eZNFQ3CWPG06uGOusoYXOdOpZQUpaQXJZQWpaQXJZQWpaQXJZQWv8HwvG464Srm0uB/vwrlqhBSUtFYEfJEoZ/P/ojkYJEwhZQfvB8rg6vJ0144U/7bSvw/1YIKEl457fOl2h6bwrhtRrAGPHJDMJwpAiw3/dvjCC8a38MFgo+G0H4ECgj7I9WBhAq7KQx4TcDCM9VzTOJphcmEKq04fQPS2gJLaEltISWsMuEwZQV/v6D2iYGEwZfr1mhS9fgnmlx+dA1wp+gERp/+Gwy5hK9jcGE/ekX0AohhPHtI34Xgwn7Pgh8vlQRRyFz/WvnxmHcT59Bs8pInN6xN+EEKEYT9v1LtlnViOzVz5wo2mzC4BG0K10dXTPXLnj3MJuwNNlAiuCBuRRyMz2GE5ayLGC2BFm0F26mx3RCONmwRgx+MBcu+XkQ0wlLkw2TlAPO/pGfrDOeEE4218eWwNmL8q3GE0Kn92rEKePsl6JcnfmEcLL5ljcFk+y9KKHcAUIwpRSOPWD+xXWFXSHs+2zWOps1WWdfkzHvAiGcbBIjgsDqRbyt0wVCONnc+NCF3NRsCXSCEIZR90HA7uwKXGGHCMFkc+Oz67XarcduEMItsgfGhKval3aEEHiHa2YUCl1hpwjhyuao6wavrCNcztb7/Xy/39xK7ha3nBEeYSVOYYPdcRFhuNkuPM8t5LnbmT7CAKuMqXGFNYSzQ0w1AIr/3ugixPbj61yhkHCz8AaYvEgXIcw7pWpUwoETrhYuypcqxF5BQDj9WnoZkkBtTDhjDZgOQubvhSbCvl/6bOtWM0LCnCieXQ7b/XqzWcdzTkHpRnoIKw5DkJxpSOgO5swUvYoKw3q3OghLGzWJnn9/HCaE3qEMsikQDzoI/Wo5LD9J2oDQXSAedp13VK+J82+ZEF3UiKN7IaG3R9/KIR+Ja3JCkOB+Vf2ylEfIqQJf5kaMyAnZPsrETsIsm4iQq8JjUBOyvjAcMS+tr0yVJNzm3bSB1281AmYzNU8+W21Y6xQlCfO5pslU02oWg+mY535/yry2dm0qSXibEboNPGKbmSg2gx9PLmBerYsvJAmXmUt0G4RRirKJ6UKGXb/VxYhdIATbTz+DslFr4vymhOFytt8eipCDlHD6wjTNfTyI+MVOsZZwdbuZRwc3ifWZcIOSkE1CFfUYIL0ozreJCFeb7cL13EqoT0sIdi2O7g9scQudoiiL4XHDYEJC0EdfrQW/KCIK9rlZjAGKRz8O2Z1Q1jOAtI3IKeKEYVTO0iS5Nm8QzSNiQtBHYdkTe4cnfj9FCVeQzXMX0Xyd5UvnLikhLMUAk+aIXbsJnCJGGDJ43mEPUsHEhKA0r5S1AHPsN+4tMMLDMSOz2JSX2LSEoK6rPJ/AmPgHz4oI4TFZ4SLpX1JCuINfCeiBgblOESFc5IAeFgaTEgIEpPgSfMuXlz2tEuZLz4GLJjK2hHMpmEswtw4rbDlOsUq4L9JNaJRL6C3gXgzWC+FMyymhrRJGeSfFU4YLOkJoITQMhBlG3ClWCfNh6M6x9xLSRU/wm5G4gUpbbg1tOBANw41LRvh4fvOqc06ENLpgG6ErcEnCwsAUvRQeGYECxu+fbdSwlw4EvbTYk6KN8d8m7jhEZ5rjYq7ThBF/c2Lr4oTZFqO77Qhhsf1S3SaM1zNofJhPsKVNN3MJw+OytDTXxBZ059iaJt9PdWFzcwmZvhgx/71N7LdA16XZ/wawk5pMeDRisgmc9bzlPi3NcEOUMNtzK+fBDSZk6xSS3EWijGuJxhbFOqd0F5MJXyNEoAQQI7xFO6k5hOi5GMtqps07pLEGQrjHQ0YJwvoSyjeId7bJHOa4vaLca55miD0W54B2UqnzafBvf7Yjn7cTGK4j1ytK9qIj0XIzi7VhX5V2abfcSbtxxtBqOZut68ous5xAdR0nQ7hSd0CN//YDePJhWPm/1FlfX5Sd9fVc//A6RfgST/K8tidF57VVC6nkxUu+SZ65d+e3fxpW4L/UP7hW2TBE0lay5yYuX+IQVqT03ERhC6iRf9/KWW1ZKBJVL/zG2Zc3FyL9828sYQuoy4aFsHVKw0ksO97++aVjPeeXDjid9N2cQbtKhyGW8XgvhGn0i9YqvhfCLa+TvhvCBa+TvhfCMFmce2hB7TshXK0ToY7nnRAKZAmlZQnJZQmlZQnJZQmlZQnJZQmlZQnJZQmlZQnJZQmlZQnJZQmlZQnJZQmldTY5affH2t+qX5OWCZMbTq5avOEb9SH55fFJq3d0kl/6Hg8N0S79bfVhm4S94UTyx+vVq9VOGuvENETnV7uAvd7OMYnRcU7bBuz1Pn4f6+YqNN79aqkUwsrKysrKysrKysrKCtN/R6bpbdjIscIAAAAASUVORK5CYII=;fontSize=14;" vertex="1" parent="HgpjItm5ChHet3baD9MJ-60">
          <mxGeometry x="42.400000000000006" width="59.2" height="59.2" as="geometry" />
        </mxCell>
        <mxCell id="HgpjItm5ChHet3baD9MJ-38" value="&lt;span style=&quot;text-wrap: nowrap; font-size: 14px;&quot;&gt;&lt;span style=&quot;font-size: 14px;&quot;&gt;ERP&lt;/span&gt;&lt;/span&gt;" style="text;html=1;align=center;verticalAlign=middle;whiteSpace=wrap;rounded=0;fontStyle=1;fontSize=14;" vertex="1" parent="HgpjItm5ChHet3baD9MJ-60">
          <mxGeometry y="58.000000000000014" width="144" height="32.16" as="geometry" />
        </mxCell>
        <mxCell id="HgpjItm5ChHet3baD9MJ-61" value="" style="group;fontSize=14;" vertex="1" connectable="0" parent="1">
          <mxGeometry x="90.23999999999998" y="200.3" width="144" height="92.15999999999997" as="geometry" />
        </mxCell>
        <mxCell id="HgpjItm5ChHet3baD9MJ-17" value="" style="shape=image;verticalLabelPosition=bottom;labelBackgroundColor=default;verticalAlign=top;aspect=fixed;imageAspect=0;image=data:image/png,iVBORw0KGgoAAAANSUhEUgAAAOEAAADhCAMAAAAJbSJIAAAAtFBMVEX///8QfEGXlZOLv4qsqqmSkI7q6urV1NOwr60Acy6YlpWTkY8AdTTV5dynxLGoyLTE2syFvITc3Nvk5OTCwcDV59S1zb3P39WCu4EAcSoAeTy417eQwo/i7uLz+PPu9e6jy6LK4Mk5jFvN4s2v0q7f7d+mpKKOuZ5KlGgrhlGbwKmBsZMYgEe91sfA27+cyJt3q4tcnHW6ubiIn49zjHpUmG8ziVdrpYF7rY51mIFjiG/LysnpJfGaAAAIfklEQVR4nO2dbUPiOBDHQegqD552V7QtUMqCqLsu6N7tenf7/b/X9REz7SRt1maSevm/04aWH5NkMpMh9HpWVlZWVlZWVlZWVlaa9fFsfKJWu6sPOgF3zkQx4MnJxLnSB3iini+RM9QFeEYDqA/xg5M8fDxUp51mxKvYhBOlYyT9DMcTbYhJJ3WUPuFTTOh8PHN0IZ4lH7DSJ2SEvaEuK5IR9oaarEhHmCOeKX0YIkJCTR2VklAPIimhFkRaQh2IxIQ5IuV0Q01Ib0VyQnIr0hNSI2ogJEbUQdjbUY5FLYSkVtRDmFuRBFETIaHT0EVI11G1EZIh6iOkQtRISDTd6CSksaJWQhIr6iWksKJmQgIr6iZUb0XthMqtqJ9QNaIBhIoRTSBUi2gEoVJEMwhVIhpCqBDRFEJ1iMYQKkM0h1AVokGEihBNIlSDaBRhjvi91eerJ0zqaRpX7GSIDT+PZlJP2EsLFE4bNh4m1VO7Nh9PQPg9tUtDZfVhbT6egLDn1BX1leW0WY1KQfhJFrFzhL0PO8eZNFQ3CWPG06uGOusoYXOdOpZQUpaQXJZQWpaQXJZQWpaQXJZQWv8HwvG464Srm0uB/vwrlqhBSUtFYEfJEoZ/P/ojkYJEwhZQfvB8rg6vJ0144U/7bSvw/1YIKEl457fOl2h6bwrhtRrAGPHJDMJwpAiw3/dvjCC8a38MFgo+G0H4ECgj7I9WBhAq7KQx4TcDCM9VzTOJphcmEKq04fQPS2gJLaEltISWsMuEwZQV/v6D2iYGEwZfr1mhS9fgnmlx+dA1wp+gERp/+Gwy5hK9jcGE/ekX0AohhPHtI34Xgwn7Pgh8vlQRRyFz/WvnxmHcT59Bs8pInN6xN+EEKEYT9v1LtlnViOzVz5wo2mzC4BG0K10dXTPXLnj3MJuwNNlAiuCBuRRyMz2GE5ayLGC2BFm0F26mx3RCONmwRgx+MBcu+XkQ0wlLkw2TlAPO/pGfrDOeEE4218eWwNmL8q3GE0Kn92rEKePsl6JcnfmEcLL5ljcFk+y9KKHcAUIwpRSOPWD+xXWFXSHs+2zWOps1WWdfkzHvAiGcbBIjgsDqRbyt0wVCONnc+NCF3NRsCXSCEIZR90HA7uwKXGGHCMFkc+Oz67XarcduEMItsgfGhKval3aEEHiHa2YUCl1hpwjhyuao6wavrCNcztb7/Xy/39xK7ha3nBEeYSVOYYPdcRFhuNkuPM8t5LnbmT7CAKuMqXGFNYSzQ0w1AIr/3ugixPbj61yhkHCz8AaYvEgXIcw7pWpUwoETrhYuypcqxF5BQDj9WnoZkkBtTDhjDZgOQubvhSbCvl/6bOtWM0LCnCieXQ7b/XqzWcdzTkHpRnoIKw5DkJxpSOgO5swUvYoKw3q3OghLGzWJnn9/HCaE3qEMsikQDzoI/Wo5LD9J2oDQXSAedp13VK+J82+ZEF3UiKN7IaG3R9/KIR+Ja3JCkOB+Vf2ylEfIqQJf5kaMyAnZPsrETsIsm4iQq8JjUBOyvjAcMS+tr0yVJNzm3bSB1281AmYzNU8+W21Y6xQlCfO5pslU02oWg+mY535/yry2dm0qSXibEboNPGKbmSg2gx9PLmBerYsvJAmXmUt0G4RRirKJ6UKGXb/VxYhdIATbTz+DslFr4vymhOFytt8eipCDlHD6wjTNfTyI+MVOsZZwdbuZRwc3ifWZcIOSkE1CFfUYIL0ozreJCFeb7cL13EqoT0sIdi2O7g9scQudoiiL4XHDYEJC0EdfrQW/KCIK9rlZjAGKRz8O2Z1Q1jOAtI3IKeKEYVTO0iS5Nm8QzSNiQtBHYdkTe4cnfj9FCVeQzXMX0Xyd5UvnLikhLMUAk+aIXbsJnCJGGDJ43mEPUsHEhKA0r5S1AHPsN+4tMMLDMSOz2JSX2LSEoK6rPJ/AmPgHz4oI4TFZ4SLpX1JCuINfCeiBgblOESFc5IAeFgaTEgIEpPgSfMuXlz2tEuZLz4GLJjK2hHMpmEswtw4rbDlOsUq4L9JNaJRL6C3gXgzWC+FMyymhrRJGeSfFU4YLOkJoITQMhBlG3ClWCfNh6M6x9xLSRU/wm5G4gUpbbg1tOBANw41LRvh4fvOqc06ENLpgG6ErcEnCwsAUvRQeGYECxu+fbdSwlw4EvbTYk6KN8d8m7jhEZ5rjYq7ThBF/c2Lr4oTZFqO77Qhhsf1S3SaM1zNofJhPsKVNN3MJw+OytDTXxBZ059iaJt9PdWFzcwmZvhgx/71N7LdA16XZ/wawk5pMeDRisgmc9bzlPi3NcEOUMNtzK+fBDSZk6xSS3EWijGuJxhbFOqd0F5MJXyNEoAQQI7xFO6k5hOi5GMtqps07pLEGQrjHQ0YJwvoSyjeId7bJHOa4vaLca55miD0W54B2UqnzafBvf7Yjn7cTGK4j1ytK9qIj0XIzi7VhX5V2abfcSbtxxtBqOZut68ous5xAdR0nQ7hSd0CN//YDePJhWPm/1FlfX5Sd9fVc//A6RfgST/K8tidF57VVC6nkxUu+SZ65d+e3fxpW4L/UP7hW2TBE0lay5yYuX+IQVqT03ERhC6iRf9/KWW1ZKBJVL/zG2Zc3FyL9828sYQuoy4aFsHVKw0ksO97++aVjPeeXDjid9N2cQbtKhyGW8XgvhGn0i9YqvhfCLa+TvhvCBa+TvhfCMFmce2hB7TshXK0ToY7nnRAKZAmlZQnJZQmlZQnJZQmlZQnJZQmlZQnJZQmlZQnJZQmlZQnJZQmlZQnJZQmldTY5affH2t+qX5OWCZMbTq5avOEb9SH55fFJq3d0kl/6Hg8N0S79bfVhm4S94UTyx+vVq9VOGuvENETnV7uAvd7OMYnRcU7bBuz1Pn4f6+YqNN79aqkUwsrKysrKysrKysrKCtN/R6bpbdjIscIAAAAASUVORK5CYII=;fontSize=14;" vertex="1" parent="HgpjItm5ChHet3baD9MJ-61">
          <mxGeometry x="40.900000000000006" width="62.2" height="62.2" as="geometry" />
        </mxCell>
        <mxCell id="HgpjItm5ChHet3baD9MJ-39" value="&lt;span style=&quot;text-wrap: nowrap; font-size: 14px;&quot;&gt;&lt;span style=&quot;font-size: 14px;&quot;&gt;CSV&lt;/span&gt;&lt;/span&gt;" style="text;html=1;align=center;verticalAlign=middle;whiteSpace=wrap;rounded=0;fontStyle=1;fontSize=14;" vertex="1" parent="HgpjItm5ChHet3baD9MJ-61">
          <mxGeometry y="60" width="144" height="32.16" as="geometry" />
        </mxCell>
        <mxCell id="HgpjItm5ChHet3baD9MJ-62" value="" style="group;fontSize=14;" vertex="1" connectable="0" parent="1">
          <mxGeometry x="90.23999999999998" y="325" width="144" height="84.15999999999997" as="geometry" />
        </mxCell>
        <mxCell id="HgpjItm5ChHet3baD9MJ-18" value="" style="shape=image;verticalLabelPosition=bottom;labelBackgroundColor=default;verticalAlign=top;aspect=fixed;imageAspect=0;image=data:image/png,iVBORw0KGgoAAAANSUhEUgAABLAAAASwCAQAAABBKHtEAAAABGdBTUEAALGPC/xhBQAAACBjSFJNAAB6JgAAgIQAAPoAAACA6AAAdTAAAOpgAAA6mAAAF3CculE8AAAAAmJLR0QA/4ePzL8AAH9CSURBVHja7d13vBXVuYfxh97roQgIgoIFBEWsgAUFsWFHTaxJrDGxpGlummleTdGg0Rt7bFHB3sCuSFEDKE2w0QUph9455f5hBeFwyi6z1jzf+dz7uTdRWPO+M3t+e83aM9WQVBE12JF2FFBAC1rQggIKqE8DagPNgFo0BNayAVhBCUWsYj2FFFLIYpZQSCHzmcsmSylJ8apmCaTtaEZXOtGJjnSkI+2plYE/s5hPmcXML/7nfRZbZkkyYEmxq0kHutGLrnRjjxycJ8t4n/FM5X3Gs87yS5IBS4rJjvSlN73Zkzp5GsEmpjOGMYzmE9shSQYsKVzV6UFfDuJg2idoVJ8xmtGMYTxFtkiSDFhSOFrQj/4Mok2Cx7iG13iGEcyxXZJkwJKSrDo96c8gDqJ6MGOewbM8w5tssH2SJClZanA4/2IxpYFuy7mXY6ltIyVJUhJUpy9DmB9stPrmtoz7GJSRB0ZIkiRVUg/+wbwootU3t8X8iwNtriRJyrW6DOal6KLVN7dpXEULGy1JknKjG9dRGHW4+nJbz1D6+6MVSZKUTbU4m3GpiFbf3N7nEurbfEmSlHmNuZw5qQtXX//KcAjtPAgkSVLmdOQ6lqU2XH25beA+unkwSJKkquvGQ2xKfbj6civmafbzoJAkSZXXkdsoMlZ9a3uJfTw4JElSxXXgNmeutrmV8Ax7eZBIkqTya8f/scEYtd3bhffT2YNFkiRtXz2uYpXxqZzbRobQ1INGkiSVZRAzjU0V3Aq5nBoeOpIkaWv2YaRxqdIPIz3KA0iSJG2uFfdQbFCq0vYoO3kgSZKkLw1msQEpA9sarvJmoSRJgo6MMBplcJtATw8qSZLSrDoX+ovBLPyy8DrqeHBJkpROe/K2cShL21QO8gCTpExzFYaSrhoX8igdLUSWtOQ86vMGJZZCkqS0aMWzzjLlYHubLh5skpQ5zmApyQbygi8rzol2nEch4y2EJElxq8cQSpxbyvHzsZp74ElSJlSzBEqk3XicrpYh52ZzivNYklR13iJUEh3H87S3DHnQlHNZyAQLIUlSXKpxla/CyfN2H/U8ECWpahczKUkKeJCBliHvJnAysy2DJBmwFIOePO4TrxJiEafxhmWQpMpxDZaSYyDP09oyJEQDzmKhC94lyYClsF3Ag678SZTqDKI5L1gISTJgKUzVuIa/U91CJM4B7MGzFFkISarohU3Kt7r8m9MtQ2KN4QSWWAZJMmApJC15lv0tQ6JN42h/UyhJBiyFYwdeYk/LkHgLGMBUyyBJBiyFoAOv0NkyBGEhA5loGSSpfFxWrPzpxOvGq2C05jUOtAySZMBSsu3BKDpZhoA04yUOtwySZMBScvXiTdpahsA05GkGWAZJ2j7XYCkfuvMaBZYhSOs4ltcsgyQZsJQ0XRjJDpYhWGsZyCjLIEkGLCVJB0ayk2UI2gqO8C2FkmTAUnK0YyQ7W4bgLeFQ3rcMkrQtLnJXLrXkJeNVFFrwKrtZBknaFmewlDuNGcleliEaM+nNZ5ZBkrbGGSzlSk2GGq+i0olnaWAZJMmApXy6iYEWITK9eIQalkGSvs0PR+XGL7naIkRoV1rzrGWQJAOW8mEwt7reL1L7spy3LYMkGbCUa315glqWIVpHMpnplkGSvslZBWVbe8bT0jJEbQ0HMsUySNLXXOSu7KrDo8ar6DXgcZpaBkkyYClX/sn+FiEFunCfnyaS9DXXYCmbLuB3FiEldqOIkZZBkj7nGixlT09GU88ypEYJxzHcMkiSAUvZ1JLxtLcMqbKUfZlpGSTJNVjKXnS/y3iVOs0Z6gM5JAlcg6VsuZQrLUIKtaWU1y2DJHmLUNmwB+OobxlSqYQjjFiSZMBS5tXhLfa2DKk1l71YZhkkpZtrsJR5fzZepVp7brMIktLONVjKtEP5lzOjKdeNj5lsGSSlmRdCZVYDJtPJMqTeCrrxqWWQlF7eIlRmXW+8EtCEIRZBUpo5g6VMOoAxhnZ94WSesAiSDFhSVdVmAt0sg76wgG7+mlBSWjnboMz5lfFK39CG/7UIktLKGSxlyu68Rx3LoG8opT+vWgZJBiyp8kfSaA6yDNrCB/Rgo2WQlD4+B0uZcTaXWQR9SwtWMNYySEofZ7CUCfWZRgfLoK1Yxa58ZhkkpY2L3JUJvzReaRsa8XuLICl9nMFS1bVnOvUtg7ahhP0ZbxkkGbCkinmY01NegXUUfrHBajYBNWkENKElBbRIffx8g8M8TSQZsKSKOJg3UngcbWI6k5jMTGYyi8Xb+aeb05GO7Ew3etAtlQ+zGMyjniqSDFhS+Y2md4r2dh6jGMMYJlf64QM12YPe9KE3u6Sobh/RlSJPFkkGLKl8juG5VOznekbxMi9ndC3RDhzJcRxJk1RU8Pvc4+kiyYAlle/4eYv9I9/HDbzEMJ5gVZb+/DocyWBOpFHkdZzNrj5yVJKk8jiR0qi3t/kBjXNSyXp8l9coibqaF3vCSJK0fdWZFG0YWMOt7JXzinbhryyLtqZzqetJI0nS9pwRaRBYyDUU5K2qDbmQDyKt7OWeNJIkbW/+alqEEWABlyXgMQo1OY8ZUVbXB9JKklSmk6K7/C/hZwkKALW5mE+jq/ElnjiSJJVldFQX/k3cRsvE1bg+17A2qjp/Qg1PHUmStuXAqC77r9A1sZXuyONR1fokTx5Jkrbl0Wgu+Mu4MPHPgxvE3GjqPcqTR5KkrduZokgu94+zQxAVb8pd0USsgzyBJEnampujuNCvDeyxASexJIq6+9pnSZK2OpuyOoLL/H/pElzl2/FqBJUvYmdPIkmxq24JVGFn0yD4fbifQ/gouFF/ygB+T2ngta/BBZ5EkiRtaWLgMyjruTDo+p/KyuAfOFrL00iSpG8K/QENhRwafA/2ZLYPa5CkJPMWoSoq7Ns7M+jDG8H3YAoHMt6jSJKkWDQOeoH7uAQ+rb2yGvFy0AvdO3gySYqZM1iqmO8GvMD9vxzJ4mg6sYpjeTLY0dfg+55MkiR9aVywcyav0jC6btRiaLD9mOPXO0mSPrdbsJfzMRHGq89ngsKNWId6QkmKl98hVRGnBzru9ziW1VF2pJizeD7QsZ/mCSVJEsCUIGdKptA86q7UZ1SQfVlIDU8pSZL2DPShljtF35kCPgiyN0d4UkmKlbcIVX4h3tJZx0nMjr4zhRzNogDHfbonlSRJ04ObISnh5NR05xA2BtefJb4yR5KUdnsFeAvqf1PVocsD7NBRnliS4uQtQpXXicGN+BV+naoODeHe4MZ8vCeWJCndxga3uL1l6nrUILjF7jM9sSRJadacosBWXx2byj71YkNgEWt3Ty5JMfIWocpnYGDPLLqJ51LZp/FcE9iIj/bkkiSl171BzYp8SL0Uf2kK62bui55ckmJUzRKoXBft+bQOZrSlDOCVFHdrT8ZTO5jRbqBFpK8xkpTyC6e0ffsEFK/gjlTHK5jC9QGNtg6HeYJJMmApnQYENNYlXJX6fv2ZGQGN9khPMEkGLKXTwQGN9dcsT32/NvCzgEbb1xNMUnxcg6XyHCVLaB7IWKeyN0W2DHghmJmhYgpYYcMkxcUZLG1ft2DiFfzEePWFX1ASyEhrsL/tkmTAUvr0CWako/3R/1cm8phHmCQZsOTlr+p+bbM2q0Yos3muwpJkwFIK9Q5knK/wus36hg95JJCRHkBN2yXJgKV02YFdAhnpX2zWtypSGsQ4G7KXzZJkwFK67BfIOKfwks3awqRgatLLZkkyYCld9gxknH8PZLYm11UJQw9bJcmApXQJ4+ZNIQ/bqq14kelBjLO7rZJkwFK6hDG3cC/rbdVW3RPIUeZDjyVFxQ81la0Oq4P4hVc33rdZW9WCedQJYJw7McdmSYqHM1jaXnAJIV6NNV5t0xKeD2Kc3iSUZMBSioSxAushG1WGMFanucxdkgFLKRLCbwhLAnopTD48x5oARukMliQDllJk5wDG+CbzbVQZ1vBsAKPcxUZJMmApPToFMManbdN2PBPAGDvaJkkx8VeEKttymiR+jF2ZZqPK1IKFAXyZasRqWyUpFs5gqSzNA4hXc41X27WEcQGMcicbJcmApXToGMAYh9umchgRwBg72SZJBiylQwiXvDdtUyRV6mibJBmwlA4hXPJG26ZyeIsi47wkGbCUDB0SP8IFzLRN5bCaSYkfo2uwJBmwlBItEz/Cd2xSNJVqaZMkGbCUDi0SP8KJNqmckj+DVWCTJBmwZMBKhsk2KZqA1cImSTJgKR2aG7CiMYXSxB9tPvhYkgFLqZD0VTHFzLBJ5bSCRQkfYS0a2yZJBizFrx71Ez7CeWyyTeWW/N9bepNQkgFLKZD8Rcc+oqEiZnnESZIBS/nXLPEjnG2TooqjzWySJAOW4lcn8SP8zCZVwKLEj7CuTZJkwJIBK/8KbVIFLEn8CGvbJEkGLMUv+Zc7A1Zc1apjkyQZsGTAyr9lNqkClhqwJMmAJS9327fOJkVVLW8RSjJgKQWSf7nbaJMqYINHnCQZsOTlLobIYLUqwluEkgxYSoGaiR9hkU2Kqlq1bJIkA5a8IHtBDkvyq+WLjyQZsJQCyb/ceUsprmq5pk6SAUspkPzLnYuiDViSZMCSASvD6tukqKrlLUJJBiylQPIvdwU2qQJaGOklyYAlA5YBK23VMmBJMmApBdYbGaLSPPEj9LlmkgxYSoHkv+lvB5sUVbWW2yRJBiwZsPKvo02qgE6JH+FSmyTJgKX4LTdgGbCM9JJkwFJmbWJ1wkfYhrq2KaI4utwmSTJgKQ2WJ/743dUmlVOLxP8koJiVtkmSAUtpkPxbNt1tUjntFUCcL7VNkgxYSoPFiR9hD5tUTnsmfoSFNkmSAUvp8KkBKxo9PNokyYClZJiX+BEe4DFcTgclfoRzbJIkA5bSIflzCs3Y3TaVQ0EAdZpnmyQZsJQOIVzy+timclWpmkebJBmwlAxzAxjjIbapHA42zkuSAUtJEcKy4yM9isthoAFLkgxYSopFiX+WO7RiHxu1HTsG8bywWTZKkgFL6VDKBwGM8mgbFUGFPvNFOZIMWEqPEALWibZpO04KYIzTbZMkA5YMWEmyD11sVBmacYQBS5IMWPKyV1Gn2agynEJto7wkGbBkwKqoM2xU8NVxBktSVKpZApWpHquoEcA4D+Itm7VVnfg4iC9SOzPTZkmKhzNYKtu6QG7dnG+rtuEHQZzlK5htqyQZsJQmE4IY5Rk0tlVbUZPzAjnKSmyWJAOW0mR8EKNswPdt1VacQrsgxvlfWyXJgKV0mRDIOK+gps36liuN8ZJkwFIyA1YYN2924hSbtYXDOCCQkY6zWZIMWEqX1XwUyEh/4a9iv1WRMCzzF4SSDFhKn3cCGec+vjRnMwcF85bGcZTaLkkGLKXNyGBG+keP6G/4UzAjHWWzJBmwlD5vBDPSbj7T/Sv9ONwjTJLyxTUrKo9PaRvISOexO2tsGNV5h16BjHUDTVlvyyTF9jEsbd+bwYx0R35qu4ALg4lX8JbxSpIBS+kU0i2cq2if+n414w8BjXakJ5gkA5bSKaRLYH1uSX2/rqel8V2SpOSbQ2lA22mp7tWhlATUq7XU8/SSFB9nsFQ+zwc12ptontpO1eX2oH688irrPL0kGbCUVsODGm1r7khtp/7KrkGN9zlPLklSejVgXVA3CUv5Xir7NDCo24OllLKTJ5ckKc1eCOzCvYrOqetRaz4LrEuTPbEkxclbhCqv4YGNtyGP0yBVHarJI7QObMzPemJJktKtY3A3n0p5IFUd+ltw/SmlryeWJCnt3g7wAn55arpzeoAB+FPn0CXFyo83ld/QAMf8d05IRW/24+4A3yw6lBJPK0lS2rUPcI6klDXsH31nOrEwwM6UcqAnlSRJMCbIy/h8do66K634IMi+zApwzk2SyslbhKqIoUGOug2vRfy0pSYMD+zRol96hFJPKUmSoC1FQc6VlDI9uAcYlE8jxgbakVL29YSSJOlzzwZ7OZ9Km+i60YRRAfdDkiLmLUJVzD3BjrwrYyJbi9WcF+kT7Ojv9GSSJOlLtVkU7JxJKbPZPZpO7MjUgDuxnhaeTJJi5gyWKmZj0E9H78AYDouiD90ZQ9eAx/8kSzyZJEn6WreA500+nzs5M/geHM3KwLswwBNJkqTNjQn84l7CX6gZbPWrcXWwv+X8cpvp3LkkSVs6I/DLeymlvELLIGvfmMcjqP4vPYkkSdpSLeZFcJGfS7/gKt8r0Ge2b/nyogJPIkmxq2kJVGGbuIVrg9+LHXmZv/JbNgYy3ur8jD9SO4Lj5z4KPYmC1ZACWtKCAgoooA61aQA0oDbQlNUUUcpyYCNrKKHwi20JhXZdaeO7wFQZLZhDvSj2ZAI/4L0AxtmZOyL5/WMpXZnuKRTMV/Ad6Uinr/6nJXUq/WeVsIS5zGQWs5jFTGayzgLLgCVt6XYuiGRPNvF3/pDoj/qa/JTfRRJo4XmO9fRJ+FWhE3vRne7sRaes3uVYwBQmMpnJTA1mJlkyYCnLujE5oqPnI67kuYSO7RBuYq+IjpwjecnTJ5F2ozcH0IM9aZSHrzkfMJlxjGW8UUtS2sXwa7ZvbsPZI3E13olHIqvyu36pS5g69ObnPJmYNzSsZSTXchzNbY2ktOpFSWQX/43cRvvE1Lclf2dtZBUu5RRPnISoRk9+yRusS+zT6qZwI0dS11ZJSp/no7v8l7Kem2ib98oW8GdWRVjdyT5gNAGacRr3sCCYh3o8y4/YxbZJSpPeEUaAUkrZwL/pnreq7sI/WRNpZU/3pMmr9vyEUYG+B+BD/sb+tlBSWrwSaRAopYQXOJlaOa1mdY7iseBfg7Pt7X3nr/KmLZcxKoKb+jO4jp62U1L8Dok2DHy+fcZ1dMvRvNXvmB15Nc/0hMmDFvyQ1ymO6kj6kD/S1dZKittzkYeCz1cO/Ybds1bBjvyM/6agilOp4emSU9U4nIdYH+0RNZrzqG+bleRTUKqKHrybkhs/nzCC4bzB6gz9efXow9EclZpv4sfzjKdLzuzAuZxP5+j3cwUPckcQ72KQAUuqsHs5J0V7W8RERjOaCcygpFJ/Qkf2pg996BXFewXLaySHeqrkyBFcwvE5Xj+YX+O4jQdYb+tlwFJcduKDKryfLFxrmMpkZjCLWcymcJsf77UpoD0d6cTOdGNPmqSwVqUcxNueKllXi9P5SUoXgS/iFm5liQeBDFiKyQ1caRFYQyFLKGUtG4BaNASa0yIPrx1JnmGcZhGyrAkXchk7proGa7mXG/nIg0EGLMWiOR/QwjJoGzbRlY8tQxbtyJWcT2MLAZTwNH9hrIVQ/vlcGlXdUn5tEbRNQ4xXWdSS6/iQnxivvrqmncgYXmI/S6F8cwZLmflQG+tTlrVVn7E7KyxDVhTwY37iTehteJmrmGAZZMBS6PblbedDtRVn8IhFyIJG/JBfpvInE+VXynP8mokWQvnho/+UGfPpxN6WQVt4hassQsbV4gqeYBB1LUWZqrErF9CBt1ljMZSPA1DKjNZMp6ll0DdsZG+mWYYMO5a/s5tlqICV/JkhbLAQyi1v6ihTFvJTi6DN3Gi8yrA9GMGzxqsKasz1TOEEC6HccgZLmTyaXqS/ZdAXPqAn6yxDxjTjGi5J1RPaM+1lrmSKZZABSyHaiSk0tAwCSjiMNy1DxgziX7S1DFVUxK38jyuylBveIlQmzeZXFkEA3GS8ypg2PMbTxqsMqMllTHKeXbnhDJYyHdnfoK9lSL2Z9GC1ZcjIZ/QF/NXHiGZUKQ9wJYUWQgYshWVXJtDAMqRaCYfzhmXIgN25wy8sWbGAS3nCMiibvEWoTPuQKyxCyg0xXmXk6+/lvGu8ypI2PM6DPqhV2T2Fpcx7hNMsQmpNZn/WW4YqasXdHGsZsmwOZzPSMsiApXA0YyLtLUMqrWFfpluGKhrIv9nBMuRACf/k52y0EMo8bxEqG5ZxNiWWIZUuN15VUT2GMNx4lbNr4GWMoouFUOb5LkJlx2zqu3okhYbxPxahSvbkFY713kJOteM8ZjPZQsiApTC8ziF0tAypMpNBrr6qkjN83lVe1OEUmvOK8+7KJL8nKXtaMYF2liE11tOX8Zah0mryJ37hZ3IejWYwCyyDMsU1WMqeRZzq4tEU+aHxqgpaMIKrjFd51Yf36GcZlCneIlQ2zWM1R1mGVLiFay1CpfXiFXpahrxrwJlsZLSFkAFLyfcWu9HdMkRvDN+l2DJU0pk8RYFlSITq9KctI1yNpapzQlrZVo/XOMAyRG0B+zLfMlTSr/mDn8QJ8wKDWWUZZMBS0u3A23SwDNFaRz/etgyVUpN/cpFlSKApHMscy6CqcJG7su8zjmaFZYhUCd81XlVSI542XiXUnrxFL8sgA5aS7n3OcoVOpH7KkxahUjowhqMtQ2K14TX7o6pwkbty40OW+2EVoVv4rUWolN14g86WIdHqcDqf+IR3GbCUdG9Tm4MtQ1Se5TxKLUMl9OBVn9gegOqcxHwmWAgZsJRsr9HWVQ0RGcsJbLAMldCLl2hlGYJQjUGs5C0LIQOWku159qCbZYjCRI5kpWWohL68SDPLEFDEGkg9XrYQMmApyUp5igPYxUIE7yMOZ4llqITDeI5GliG4UGzEkgFLCVfMUxxGewsRtDkc5oNFK2UAz1HfMgQZsRrwkmWQAUtJtpFh9GNHCxGs+RzOTMtQCQfzLPUsQ6D6AG9YBhmwlGQbeNSIFax59OMjy1AJPRnhzcGgHcY6XwQtA5aSHrGcxQrTXA7nY8tQCd15heaWIXD9WcQ4y6Dy8V2EypemvMh+liEos7w5WEm7MdIHM0ShhPO43zLIgKVka8RT9LMMwZhJP2ZbhkrYiVHO10ajiNN4wjLIgKVkq8ODnGIZgvA+A5lnGSqhMaPobhkisp4jGGMZtD2+7Fn5tIHTucsyBOBtDjFeVUotHjNeRaYuT9HFMsiApWQr5gL+ZhkS7lkOp9AyVEI1bqe/ZYhOC4bT0jKobP6KUPn3Emvo7+3qxLqHs3znYCX9listQpSacwAPUWwhZMBSso1hMoOoZSESp5RruYISC1EpZzPELw7R2omdXewuA5aSbzovMsjHMCbMes5jiGWopN48Tk3LELHulPpsd22b366UHG15hn0sQ2Is4WTetAyV1JrxtLMMkSvheJ6zDNo6F7krOeZzGE9ahoR4l32MV5VWi0eNV6m4gt7PLpZBBiwl3ypO5n9cOJoAj3Iwcy1Dpf2NvhYhFZrxOPUtgwxYSr5S/pcjWGgh8qiIqzmNNRai0r7LZRYhNXpwp0XQ1rjIXckzm4fp46tF8uRTjuMhy1ClC+5T/iI2VbqzjLctg7bkInclU11u4BLLkHOv8F0WWYYqaMi7dLYMKbOJvrxjGbQ5bxEqmdbzQ0706eE5VcwfGWi8qqKbjFcpVIsHaWgZtDlnsJRkrfk3R1mGnJjNOYy0DFV0Eo9bhJS6mx9YBH2Ta7CUZGv4D8s43OM064ZxLB9Yhipqx/P+oiy1ejKdqZZBX3MGS8nXi3vobhmyppCLedQyVFl1XuJwy5BiS9mLeZZBX38kSEk3nn35A5ssRFY8Qw/jVUb81HiVcs25z2uqvuatF4WgmNd5mgNoYykyaiHn82tWWYgM6M7Dfp6mXidWMtYy6HPeIlQ4avELfk1dC5ERpdzHT1hqITL0VXU0B1gGsZbuzLAMAm8RKiSb+DN7+mrVjJjBQM4zXmXMj41XAqA+/3LiQl9+75JCsoz/MIEDaWYpqvAd+1rO9DeDGbQTj1LbMgiAXZjJRMsgbxEqTPW4iqu8WVgpz/JjZlmGjBrBQIugryylq+9TlbcIFaZ1XMOu3E6JpaiQ9ziEQcarDDvXeKXNNOdGiyBnsBS2ffkL/SxDuczh99xLsYXIsJZMo8AyaAvHuVpUzmApZOM4nAGud9iuQq5mN+42XmXBn4xX2ooh1LEIaecid4VuBnfwMV1pYSm2ahXXcTqvUmQpsmAv/uXXVG1Fc1YyxjKkm7cIFctXhdP5FV0txGZW8n/8ncUWImte9Ra1tnn27epS93Tzu5fiUMx/6M7xTLAUX1jC7+nI1carLDrFeKVtasyfLUK6OYOl2L4yHMOVqX8n3Fz+zh2s9XDIqrpMZWfLABSzEljPOmrQGKjnI1QAKGE/v/IZsKS47MWVnJHSRaZvczPD2OhBkHW/5NqUxoZPmMYsZjKLzyhkMcu/9c/Up4AW7EAHOtKRLnRLaeR6k0Mp9VQxYElx2YFLOZ8dUrTHGxjKzfzX1udESz6hUar2+APGMJaJTGVNhf/dGnShB/vTm14pe+b9yTzhySIpPrU4iecoojT6bTa/prUNz6G/puCo+nybw+2cTMsM1a0uh/BnxlOSkupNdqWzpHi153fMivYDfA33c4Qf4jnWhjUpCAdT+A17ZqmCrTmfF1Px5ec7ni6SYladw7mdwqg+uEsYyfdTdpsqKW6KPBR8yp/oloM6tuQS3om8ltN93qSk+NXmOB5gZQTRaiw/paMNzduc6Ppo40Axz3I8NXNaz725hRURR6xzPWUkpUM9TuZuFgZ6+RvJ5exoE/PqtmhvN99KlzzVtDE/ZXakdf2EWp40ktKjOgfwJ94N5kN6CQ9xXqp+FZlUO7MxwhCwgt/n/a2KtTiLD6KMWBd62khKnx05h3sSvAi+iNH8lv1dx5EYt0Z3+V/NdYl5ZXVNvsfMCOewPH8lpVYnvsd9bErQRe8Vfs8AF7EnTIvIfj9YzD20SViNa/MzlkcWsQZ76khKtyWJ+DD+O/vleJmxyuu3UV32R7NfQuvcijsojqjSb3nqSDJg5X872EYkVB0WRLTq6vKEPz/tIKZEFLE8q1PHxxNKUnmdE83PDJ6hK0MoSfQYx7IPv4/mvZo/9fSRlGbOYGnbqvF+FHMpa7k8oKrvyaRIHgy8h6dQujiDJUnlc2wUl8h32IshAY13CgdxexTx/HJPIQOWJOnbLo1gH27nYD4KbMxruIjvsCb42p9DU08iA5YkaXPtGRD4HqznB1wU6Jqmh9mX6YHXvx5neBoZsCRJmzs/8IdFzqcvdwc8/un05tXAj6ELPI0MWJKkb6rBeUGPfwq9GR94D5YxkNuC3oN92MdTyYAlSfra0XQIePSv0IfZEXShiEu4Jug9cA7LgCVJ+oaQX9f7HMexMpI+lPJ7Lk3487vKciYNPZkMWJKkz7Xh6GDHPpSTWB9VN27lPIoCHXsj30powJIkfemsYN8NOZTvsim6ftzPhZQGOvZzPJ0MWJKkz50e6Lhf4ByKo+zIPfw40JEfQltPKAOWJAl2oVeQ436ZE9kQbVdu4epAr7qneEoZsCRJoc5fTeXUyNZebel6bg5y3Kd5ShmwJElhBqz5HMOK6DtzBU8FOOo+QT/yQwYsScqI3egR3JjXchxzUtCbEs7kveBGXc2bhAYsSVKI81c/5N2UdGcNJ7LEY0oGLEkKzcnBjXgI96aoP7M5O7gHj+7Pjp5YBixJSrO2wd0gHMPPU9ajEfwxsBFX4yhPLQOWJKXZ0VQLaryrOS/CB4tuzx94I7ARG7AMWJKUaqFdCC/loxR2qYTvBfa2xQHU8uQyYElSWtWkf1DjfYz7UtqpmVwe1Hgb09vTy4AlSWl1EE0DGu2KwEJGZv2bF4MarzcJDViSlFpHBzXan/Bpqrt1Eas9tmTAkqTkGxjQWN/gnpR3a1ZQvybs4UufDViSlE6N2SuYsRZzOaWp79g/+DCYsVbjYE8xA5YkpdFB1AhmrHcy0YaxMahngPWxYQYsSUqjcH7ntZLf2i4AnuZlA5YMWJKUZH2DGemNLLJdX/hlMLdK96KR7TJgSVLa1GT/QEa6nCG26yvjeDaQkdbgANtlwJKktNmLhoGM9K8ss13f8Jtg5rC8SWjAkqTUCeUG4SpusVmbmcjzBiwZsCQpmUK5QXgHK2zWFv4WzDFWzWYZsCQpXcJ4BlaR66+24nXeCWKcTdjJZhmwJClN6rBrEON8gjk2ayv+Gcg4e9gqA5YkpUlXagUxzjts1VY9GsjCfwOWAUuSUiWMC99MXrFVW7WOB4MYZ3dbZcCSpDTZM4hR3kWJrdqGOw1YMmBJUtKEscT9YRu1TROZGsAod6WerTJgSVJ6hDCz8A6f2KgyDA1gjDXoaqMMWJKUFo3YIYBRPmKjIqhPFxtlwJKktOgUxCifsFFl+iCIm4SdbJQBS5IMWMkxnZk2ajtGBDDGjrbJgCVJBqzkGG6boqiRM1gGLElKjRBeYPKCbdquUaw2YMmAJUle9MqriNG2abs28Fbix9jB67ABS5LSomPiR/heAHMzSZD8GFqbtrbJgCVJBqxkGGuTymVUAGP0JqEBS5JSoS5NDFiReDuAlwntYJsMWJKUBi0CGON7tqlcVjEj8WMssE0GLEkyYCXBBj6yTeU02eNNBixJSoLkzyhMocg2ldMkjzcZsCTJC155TLdJ5TbN400GLElKguTfsvElOeU3y+NNBixJ8oIXR2gwjJafM1gGLElKhWYGrIgsZo0BSwYsScq/+okf4ac2qdxKWZDwEdazSQYsSUqD2okfYaFNqoAlCR9fHVtkwJKkNEj6Ba+UZTYpojha2xYZsCQpDZJ+wVvuU7CiCljOYBmwJMmAlQBrbFFU9apNNZtkwJKk+CV9RmGjLaqQDUZ6GbAkycudAcuAJQOWJEWnlgErKsmvl6uwDFiSlAKlCR9fDVsUWb380YIBS5JSYFPCx+cNpYpJ/vzQBptkwJKk+CV9PsEbSrHVy5u+BixJSoGkz2AZsCqmbsLHV0yxTTJgSZIBK9+a+9ykCtYr2bxBaMCSpFRI+g2bWjSySREFLG8QGrAkKRVWJX6EBTapAlomfHzOYBmwJCkVViR+hK1sUgW0MGDJgCVJ+bcy8SPsYJPKrV7i4+hym2TAkqQ0SP4twk42qdw6Jv4nAUtskgFLktIg+bcIO9qkiMJooU0yYElSGixN/Ag726SIamXAMmBJUiosTPwIe9ikcuue+BEutkkGLElKg88SP8LW/o4wojDqDJYBS5IMWMaGwK5xXQ1YMmBJUhKsCeB3hPvapnLZg4YGLBmwJCkZkj+H1ccmRVOnObbJgCVJ6TA3gODgp3d59A1gjLNskwFLktJhRuJH2Iw9bFMUAWsRa2yTAUuS0mFmAGMcYJu2q0sAjxmdaZsMWJKUFjMCGONRtimKGhmwDFiSlBohXPQOpb6N2o6jPdZkwJKk5Pg4gDHW9SbhdjTksABGOctGxaqmJZAAaMs+7EODRIzlJaYy8Yttma3Jg0IWBfCs9NN4ylaVYRD1AhjlDBsVq2qWQKm2I73Yh17sQ5uEjnA2E5nIe4xlge3KoVfpl/gxrqI162zVNj3JCQGMsk0Qbw6QAUsql+p051AOpQ+tAxr1x4xmFKOZTqktzLqb+VEAoxzMo7ZqG5qwkDqJH+Vi3yoZL28RKk1q0JNDOIy+NAtw9J3pzLnAEkYzilGMo8iWZs37QYzyPAPWNn0ngHgFk2yUpLB15Ic8wwpKI9qWMZTv09bmZsUhQRwDRbS3VdswLogO3mCjJIWpBr24hnGURBWtNt8+YQj9qW2zM6oJxUF0/3e2aqv2CuTsPc9WSQpNc87hYZZFHKw231bwGGfR2MZnzAdB9H0utWzVVtwRyHm7r62SFI76DOYZNqQmWn1zW88znGPMyogHA+n5WbbqW1qxLpBbvPVslqQwotXpPB7IR2s2t7U8zhk09ICokisD6fa7tupb/hhI7ybbKklJV5NBPMTq1EerzWPWMI6jhgdHJfUNptM+0X1zDVkSSOf+ZbMkJdku/JlPDVTb2ObxZzp7kFRCAzYF0uPRNmsz/xPM2Xm2zZKUTHUYzEtR/0IwU9s4LkzIa4BC8nYw/T3aZn2lCYXB9K2T7ZKUPHsyJKAP0mQ8N+sW9vbAqYC/BhSgfSvHl34fTNfm2yxJyVKN/jzjvFUlt1EMdl1WOR0fUF/PtF0AtAtoJeYjtktSctThHKYYk6r8aNKraOrBtF3NA3nY6Odr7bwFDPBAQOfhZbZLUjK05dpgfh0Uwg3Dv/iale2aFFBHf2+7ODComW0fMiopAXbn3pQ+OjSb2yYeoocHVxluCKib69g15d2qyYSA+rXEW/WS8m0P7gvmB/PhbSU8Qy8Psm0YGFQvX0/5UvergurWg55ekvKpK/dRZAzKQcjydsXW1GVNUJ28IMW96hjYg4Z9xZGkvOnO0IAWGYcfsp6kpwfdtwwPqovL6ZjSPtVgZFCdKqaVJ1fsqlsCJVJnhjKRwR6hOVONExjPU67J2sILQY22CfendGXPLzk4qPFOYJEnlwFLyrUC/sFUBvvoxDyErON5l7toaym+0ILDAxtxX/4nhX06gN8FNuLhnlyScqsuv2CZN+zyvK3mGp+qBBzF/CB/G3pYyvrUnBnBdam3p5ekXM6fnMks401iXuNxfqp/Rl6Pm4N9W8BCdkxRp6ozIrgOfeYjGiTlTh/GGWsStk3iyJQejfvwftCde4s6qenVHwPszy1+4EvKjZbc7bsFE7o9zU4pOxprcHUED7W9PyVrGL8T5CfHoX7oS8q+apzDYoNMgre1XEPt1ByPHXg9kr5dk4JuHcz6IG+/e4NQUtb14m0jTADbZPqm4ng8m+URPdnse5F3a3cKg+zMED/4JWVXU4b4lPaALtf30TLq47EJD0TWsyJOj7hf7YP9ScxBfvhLyqZBQf4EPt3bYs6LdmVPf+ZG2LENHB1pv9rycaA9meMT/iRlTzPuNa4Euo2I8BEAdbkh2h9ZrI3yl6BtmBpsR/7iBUBSthwV5VxBerblXBjV8diNd6Pu1wZOjuwTZCc+DLgfe3gJkJQNTbnHiBLB9lgk67Gq89Mgf4dW0We7fzeiz5DdmBNwL0Z6EZCUDUczz3ASybaQk4I/HtvzSkq6VczPI/kM6cuSoDtxtpcBSZlWh+soNphEtQ2lecBH5OBAf+Rf2e1OagX/KXIqawO/vV7fS4GkzNqVCQaSCLfZgf7kvGl0j2Qo3w8UQg7E1bkm+J8i3OylQFJmncMqw0i063uuoXpgx+NBfJLSbs1h/0A/QxrzRAT139uLgaTMacT9xpDIt6cDmhmpzfWpvlW9lvMD/BTZN9inXn1zG+vlQFLm9Ar6B9Vusd0qjP2RDOXbHg3qVmF1rmJjFHU/zQuCpEz5fgp+Au/2+baRnyb8CdXVuJx1dopSSpkXzONHd+LVSGo+w1c8S8qMWtzihSx1twqbJPZ4bMsLdmiz7d8UJPwzpAZXRLR68zIvCpIyoTUjvYSlcJtGl0Qej6cG/vSkbD3L7KwEzzruw9sR1bqQhl4W0qa6JVCWPhoPtgwptDvjOC5hY2rEbQxL/GxNPrTift6hdwJHVsAQ3gn2F49b83+s9oCTVFXfc6VLyh/ckKSbIX2ZYU/K3Iq5j04J6lhDfsmKyGq8njZeGCRVTQ2GeMly4w5qJ+BorMWfKbIb5fqJwr9on4CO1eNKFkZ5PiiFqlkCZVB9HuJ4yyDgTU5hcV5HsDv3s6+NKLcNPMANvJ+3v785F/NjdoiwshvZjVkeYJIqrzXvOBfg9tU2k655/Or4Q9bYgwpvJTzLkXlYm7s7N0X8todbvTg4gyVVxR48l6iVHMq/pQxiTB7+3h24i2Msf6XN4i7u4dOc/F31OZUL6BtxNdfTOUe1lAFLUerNU7SwDNrCBs7ksRz/nUdxt0uKq6yEsQzjET7L2t9QhyMZzAk0jrySN/ITDycDllRZ3+Vu6lgGbUURF3NXzv62htwY5Lv2kqqYNxnBcCZl9E9tw1EczZEJfixt5qxhFxZ6IBmwpMq5nBs9krRNpfyGP+fkbzqQ++lswbNgPm8whlFMprgKf0oH+tKbQ9gzRZ8X13O1h48BS6qcX/Eni6DtuIXLKMnq31CTX/MralrqrFrDVCYymenMYjYby3GFaUMndmVPetCd1qmr11K6sNTDxoAlVcZ1XGURVA7DOJNNWfvTu3A/B1jknCphPvMppJBC1rPmi7hVjaZUpwUFFNCSnVK+dOAybvZAMWBJlTl6buAKy6Byep6T2ZCVP/kcbvFNb0qcaeyVxS8VSjzfRajKqsGdxitVwDE8Qd2M/6kteZJ7jVdKoCuNV+nmDJYqpzYPMNgyqIJGcBLrM/jnHck9tLWsSqCnOcEiGLCkiqrBfzjNMqgSXuAk1mXkT6rHdfzYzzAl0ka686FlSDdvEaoy8eoB45UqaSBPUi8Df86+vMtlxisl1E3GK/nxpIqH8rs51zKoCl7mBNZWKeJfze+oZSGVULPZk9WWwYulVLFI/k/jlaqoP09V4ef7O/EqfzJeKcF+bLySAUsVdT2XWARlIGL9hxqV+jcH8x6HWEAl2AM8YxFEJT/ilFbX+lhRZcgetOK5Cv47TbmLP2ThUQ9S5hRyAmssgwxYqohf8TuLoIzZlxq8VoF//khepLdlU8JdzFiLIAOWKuK7/NMfRSijDmV1OS9GdfkTt9LYkinhXuVnFkEGLFXEkQz1aFHGDWAGk7b7T+3NC5xkvFfiLecoVlgGfc5F7iqPnjzqr7aUBdW4m+O28xn1C96mq6VSAC5mjkXQ1x9v0vbsyFh2tAzKkrUcxn+38d914F4Os0QKwr2cZxFkwFL5NWc0u1sGZdF8DmDeVv7zwdxGM8ujIMygJystg77mLUKVrS5PGa+UZW15/Fuvz2nGwww1XikQRZxpvJIBSxXxT/paBGXdfty/2afR4UzkdMuiYPyetyyCNufvwlSWn3C1RVBOdKUmrwJQh+u5laaWRMF4jQsptQwyYKm8BvBv5ziVMwczg0l0ZTgnuzpUAZnLAN89qG/zY0zb0oW3XQGjnNrArVziq3AU2FF7KG9bBhmwVF6NGEs3yyBJZbqQOyyCtsYbQNr6cfGg8UqStuN+45UMWKqIaxhkESSpTOO50CJoW7xFqG8bwAijtySVaQEH+mocGbBUfq15lzaWQZLKsJZ+vGMZtG3OU2jLI+IB45UklamY7xqvZMBSRfyW/hZBksp0JU9ZBBmwVH6H82uLIGXQR3yHRZYhMjdws0XQ9rgGS19z9ZWUWbfzE9awD6/SxGJE4zFOo8QyaHucwdLXYfte45WUMYs4notYA0zgeNZZkEi8zFnGKxmwVBE/ZKBFkDLkBXryzFf/30hOYINFicBYTmK9ZVB5eItQn9uZiTS0DFIGrOOX3ETpFv/pyQylhsUJ2nsczjLLoPLxdBdAdZ6gi2WQMmAcA3luK//5NBZxnOUJ2Af0Z4llkAFLFfEzzrcIUpUVcy3nbPNXg+NYwUDvGwTqYw7jM8sgA5YqohsPUdMySFU0g+O5r8wF0G+xiGOMWEHGqyP41DLIgKWKqMkz7GQZpCoaxiA+2u4/NY6POd6fFwVmGkcwzzKoYjzN9Sv2swhSlRRyCqexvFz/7IOcR5ElC8gEDnH2ShXnVHXadWESdS2DVAUvc14FL8CDGEYdCxeE/3IUSy2DKs4ZrLQH7NuMV1IVrOMyjqzw/MYznObTlILwCv2MVzJgqeLOop9FkCrtXfbl5m898ao8nmYAhRYw4Z7gONZYBlWOtwjTrDnTaGUZqmQli1hCIYUUspH1rANWUUpjoA71qUkLCiiggJY0s1xRKeGv/JaNVfgTduN5draQifUPfupLcWTAUmXczgUWocLmMokPmcVMZjGLVRX4N+vTkU50pCNd6EFHz76gzeYcRlb5T2nFM+xvMROomCu52TLIgKXK6M2b3iIutw8YywQmMSljL8poTHe6sw+92cM+BOcBfsSKjPxJ9XmI4y1owqzhuzxtGWTAUmXUYjzdLcN2v8WO401GMYbFWfxbmtGb3hzMQT7uNQjLuIRHMvjn1WAIl1rWBPmMQYyzDDJgqXIuY4hFKMMiXmA4L+Z0GXIT+nM0R9HO8ifYK5yXhUdO/pAbqW1xE+E9TmS2ZZABS5XTjI8osAxbNYdhDOO/eVzc2pNTOY3OtiJxNvA//CNLR0ZvhtHWEufdfVzMOssgA5Yq6wautAjfsoChDGVspX50n3m9OI3TfYlRgkzmTCZn8c/fgWH0tcx5tJErudUySKq8nVlPqds3tmJeYjC1Etep6vRnKBvtUN63Em6jftb7XZPrrHXetk/p7cVBUtU87ofpZh+r19Ah0f1qzVXMsFN53OZyRM66fRZrrHgetjdo7aVBUtUc4ofpV9skzg1kaXENBvO2HcvL9nCOHxG7J5Osek63Iv7gL3glVf2m0zg/UCmllBc5Mrg1iAfzFCX2Lofbcs7KQ5/rcqN9ztk205VvkjLhbD9QKeVlDgq2g3vztB3M2W2j/P3I4Ejm24EcbA/SxMuCpEzcaPog9R+oo3O4niZbejDUS2OWt01cQ428drkpD9mHrG4ruNCLgqTM+H7KP1CncUw0vTyUCV4is7ZNpWciunwBq+xGlrZX6OQlQVJm1OKTFH+cLuWqyJ6VXZ1zWOCFMiuPZGiQmC635TF7kvFtGRf6FEhJmfw2nN7nXN0a6ZPrG/MXn5OV0W0+AxPX5dMM0hndhrKDlwNJmZy/SuuzlKZwYNSd7c5bXjQztD1Gi0T2uAlDKLY/GQnQp3gxkJRZF6fy43Q9v03BS3RrcCWrvXhWcVvJ9xLd5YOZZpeq+MOFITT2UiAps+owJ4UfqO/QNTUd7sQrXkKr9OvSnQM4i3/BcntVye2FFH0aSHL+KotbEX9O4NsFs6k6v2CDF9JKbBv5dZ4fyVB+LbmVTfasgtuHDPIiICk7l94PU/aBOptDU9lpX7NS8W0GfQLr8m4+B60C2yquoY4XAUnZcVLKPlIfpWlqe12fO72oVuCRDP9H/SD7fCST7d92t3X8g1ZeACRlz6hU3Rr8eeqfcHMB6724lmP7jOMC7nINzk3dzHRFtg38Hzv64S8pm/ZP0YfqYgbYcGAfZnqJ3c42gjbB97k6g/1t4VaffDeUzn4MSMq2R1PzsTqeDrb7Cy15zQvtNrfVEb2FrgZnGbI2exjD/XTxA0BS9u1CUUo+WJ9O0AtOkqA293m53er2dnQX4Op8lyl2lpXcwE6e+pJy45aUfLTeTk2bvYVqXEOJl90t1uhdF+2jZ/syNDVfp7a2ou4amnvSS8qVpqxJxYqLK231Npzrs7G+sX3MQZH3uzNDWJG6vk7k3BS8sUFSovw4FXMS59roMhzNWqMVpZRyH41S0fFGXMjU1DyIYSj9Pckl5V78j53cwMm2eTv6sSr14WoxJ6aq59U5nHsj7/s4LvLdgpLy46DoL5trOdo2l+tIWJbqePU8O6Sy7w05h1cojq6fi/gnPT2tJeXPPdHHq342uZx6sjSl4Wotl6b80bMd+BXTI+lmIXdypD9okZRfTSJf4L6BY21yBezPyhTGq0n0sPUA7MzljAr4V6VrGMogl7JLSoIfRf44wZNscQUdmrLl7kVcSy3bvpl2XMyIwH5ZOp0bOdIXNktKjpgXuBfzXRtcCUel6KENMznYhm9DY07jNj5I/PP2n+YSOtkuSclyQNQXzx/Z4Eo6IyWPHr3X35eVQ1vO5A4+SljvVjCc33CYc1aSkummiC+eN9jeKrg6+nBVyGDbXCHtOZubGJXnxzrM5kEupQc1bIhiUM0SRKom82gd6b49y4kU2+IquIUfRrx3r3Ae82xypee0etGLXhxAy5z8fRv5mPFM5X3+y2eWXwYsJd9ARkS6Z+/Qj7U2uIrx+1kGRrpv1/NLSm1xRqLWLnRmF3ZhFzrTLGN/7npmMZNZzGQGk/nEL0uK94NWcfpOpPu1gBONV1VWxBm8Q5dIvzQarzJjPvN586v/rzmdaE1LWnzxv1vSmiZQRvAqYQWrKWQxSyikkEIWM4eZLLC0SgdnsOJUl4VRLvHdxOGMsr0ZsSdv0SDC/ZrBLjY3x+pTh5pfvOdxE6uB1WyyLJJiNNjfDmq7zoj0KNnX1krKv+qWINJLZ4we4J+2NoMe5h+Rfr2QpLzzFmGMmvAZdaPbqw/ZhzU2N6NqMSbC+Z6Z7OI6LEn55gxWjI6NMF4VcY7xKuM2cQaroturTvSytZIMWMq8QRHu029528ZmwSf8JMK98iahpLzzFmF8arIog8+sSYaRHO7TcrLmMU6ObI/8JaEkA5Yyrh+vRrZHa9iTWTY2a1rwfo6e2p07ezLVxkrKJ28Rxie+G4S/Nl5l1RKujG6fjrGtkqTM+jCypxq97atfc+DpyI6aV22ppPzyFmFs9uD9qPaniP14z7ZmXQemfPEk7jhsoiUrbKuk/PEWYWyOi2x//mq8yok5/C6q/anFAJsqyYClzIlr7cl8rrWlOfJPpnsmSJIBS1tTlwOj2p+rWW1Tc2QTP45qf452AYQkA5YypXdUz3B/hwdsaQ69zPMR7c0O9LSlkgxYyozDItqXUq7wjXI59lM2RbQ3h9tQSQYseUnZ0lOMtaE5Np1/R7Q3h9pQSfnjKoWY1GcZtSPZl1J6MtGW5lwHPqROJPuyggJfsCQpX5zBiknfaOIVDDNe5cUc7oxmX5rQw4ZKMmCp6vpFsyfFXGM78+TPrI1mXw6xnZIMWKq6w6LZk6FMs515soA7PCMkqapcgxWPuqykViT7sg/v2tC82ZEZkRxJS2lJiQ2VlA/OYMVjr2ji1SvGq7yax6OR7ElzutpOSQYsVc2+0ezJDTYzz/4ezZ70tpmSDFiqmv0i2Y/pDLeZeTae1yLZk142U5IBS1UTywzWTT6/PQFu9qyQpKpwkXssGrKcGhHsx1rasdx25l1NZtM2gv3YRGPW205JuecMVix6RRGv4GHjVSIUcV8U+1GL7jZTkgFLlRfLrZA7bGViOlHimSFJBqy0i2Mx72TespUJMSOShe4uc5dkwFIVxHEj5AEbmSAPGrAkqbJc5B6HmqymTvB7UcouzLSZidGMzyJ4ffgmGrHBZkrKNWew4rBzBPEK3jFeJcoyXoxgL2rR2VZKMmCpcvaIYi+G2kg7kgW720hJBiyl9xJSyjAbmTBPRXFzzYAlyYClSorhlbYTmWsjE2YlIyPYi91spCQDlionhluEvoHQrmSHM1iSDFiqlGpRfEc3YNmVbH398NfSkvJwaVb42jEv+H1YQQuKbGUCzaRj8PvQPoIzRFJgnMGKQccI9uEl41VCeZNQkgxYKdUhgn143TYm1BsR7MPOtlGSAUsV1z6CfRhtGxNqlGeIJBmwDFhhWs0U25hQnzLbM0SSDFgGrBCNdQVWgo32DJEkA1Ya7Rj8HoyxiQYszxBJBiwlS/iL3MfZxAQbH8EZ4gNpJBmwVEF1aRH8PkyyjQk2hZLgz5EC2yjJgKWKaRf8t/PlvoUw0dbwSfD74CosSQYsVVDL4PdgMqW2MeEdCp2rsCQZsFRBzYPfg4k20YCVZd4ilGTAUgU1C34PPrCJCTfNryGSZMBKm/AvHTNtYsLN8muIJBmwDFhevmUENmBJMmAp5ZeO2TYx4Rax2rNEkgxYBqyQLA7+4p0GoYdg12BJMmApZQFrji00YHmWSDJgyUtHZi2xhXbJs0SSAUtJ08BLt+zSdjSxhZIMWKqY2oGPf7EtDEChZ4kkGbDSpZaXbmVd6DNYBixJBiyl7NKx1BYag7Ouji2UZMBSugLWWltol7Kupp91kgxYqpjQbxFutIV2yfNEkgFLSRP6DNYGW2iXPE8kGbDkhSOznMEyYOWCM1iSDFgyYMkueZ5IMmApn6oFPv4SWxiA4uD3oIZNlGTAUkVsCnz83roJQfiPOXCmVJIBS6m6cPiEohDU9jyRJAOWActLt4zBBixJBixVQei3CA1YBiwDliQDlhIn9B/Q17WFBqysK45gmb4kA5ZyKvQZrGa2MADNAx+/81eSDFhK2aWjwBbaJc8SSQYsJU3oM1gGLLtkwJJkwFLirA98/C1soQEr69bZQkkGLFXMci/dMgZvR6EtlGTAUsUsC3z8bW2hXfIskWTAUtIsDXz87X1LXAA6eZZIkgErXUL/bl6LdjYx4erRyoAlSQYsA1ZYOtnExHeommeJJBmw0iX87+YdbaIdMmBJMmDJS0dmdbaJdsizRJIBS8kS/gxWd5uYcD2C3wMf0yDJgKXUBaweNjHh9gx+DxbbREkGLFXM/OD3oCONbWOiPyXCD1hzbKMkA5YqZimrA9+Dat4kTLTONAh8D0r41DZKMmCpouYFvwd72cQEC/8W7mfBvxJdkgFLeTA3+D3obRPtThZ5g1CSAUupDFh9bGKC9TVgSZIBy4AVoo7saBsTqn4EN3Dn2kZJBiyl8/JxkG1MqAOo7RkiSQasNIrhBkhf22hnDFiSDFjy8pFZA21jQh0ZwT58bBsl5Vo1SxCB2qyhZvB70ZlPbGXiNGVx8MdWMQ1Zbysl5ZYzWDHYyMwI9sI5rCQaEEF0n2m8kmTAUuVMi2AfjrKNCXS0Z4ckGbDS6/0I9uFw6trIxH0+xDCvON1GSjJgKb2XkAZRzJbEpTdtI9gLZ7AkGbBUSe9HsRen20g7YsCSFAd/RRiHhqyMoJdracUam5mgr19zo5jBas4ymykp9x+hisFq5kWwF/U51lYmyCFRxKv5xitJBixVXhy3Qc6wkXYjwybYSEkGLFXeu1HsxXG0sZUJUS+SFVjv2EpJBixV3n+j2ItanG0rE+J0mkaxH+NspaR8cJF7LDowO4r9+IQulNrOBBhN7yj2ozWLbKak3HMGKxZz+CyK/diFw2xmAuzOQVHsxyzjlSQDlqomllshl9jKBPhhJLPb422lJAOWDFgAJ7OLzcyzZnwvkj1xibskA5aq6L+R7EcNfmwz8+yHNPRrhyRVhYvc49EymtUmq+ngwyHzqA6z2CGKPSmiOatsqKR8cAYrHouZGcmeNORi25lHZ0YSr2CC8UqSAUtVNzKaPbmSRrYzT2rwi2j25TXbKcmAJS8nX2vJD21nnpzLbtHsyxu2U1K+uAYrJu2ZE82+FLIzK21pztViOjtHsi9FFHgMScoXZ7BiMpdPotmXAq6woXlwfjTxCsYbryQZsJQZr0a0Lz+hwIbmWD3+J6K98QahJAOWMuT1iPalCdfY0Bz7BTt6NkhSJrgGKy5t+DSinhaxN1Ntas7syHQaRLM3myjwIQ2S8scZrLgs4IOI9qYmN9nSHLo+ongFI41XkgxYypyXotqbwxlkS3PkIL4T1f48Z0slGbCUOc9Gtj83R/NWvGSryT8jWzDwrE2VZMBS5rzGiqj2ZyeXuufEz9gnqv35kI9sqiQDljJnEy9GtkdXcpBtzbIu/DayPXL+SpIBSxn2THTH6L+oZVuzqBq3Ui+yfXIFliQpwwooojSy7be2NYsuju54WUFt2ypJyrSR0V0wN3Ggbc2S3VkT3fEyzLZKyjdvEcbomej2qCYP0tjGZkEt7qN+dHtlwJJkwFIWPB3hPu3sQ0ez4lr2i26f1roCS5KUHROju+lTSmlkD8JMgiMpjvA4ecTGSso/Z7Di9FCUe3UXPW1tBnXgwSg/AQxYkhLAlz3HeumcGeWl82P2Y7ntzYi6vMm+Ee7XKlqzzvZKyjdnsOI0h9FR7ldn7veYzZB/Rhmv4GnjlaQkqGkJIvUfDo5yv47jt748JwN+yA8i3bOhNjcnqtGCRtSkEdCQWl/8X7CJ1cBaNgArWEUhRRZLaT1JFKcCFkT6/PNSzuEBG1wlR/N0pF+uVtKKDTY4w2rRkV3oSGta0IpWtKQFLcs9l7yCxRSyhEIKmc1MZjGLlRZVBiyF6xmOi3TPNjKQ121wpe3NyC9mG2J0N5ez2iZXUXU605Vd6Mwu7EKHjMfxQmYxi0+YwiSmsdGCy4ClkHyH/0S7b8vowzRbXCk78hbtot7DTziLt2x0JdRgd3rRk33omcMIvonpTGYSk5jAQpsgA5aSrz7zaRLt3s3iYObZ5Aprzut0j34vi/gj17r2p9xacAiHsh975f2p/h8xhlGMYRqltkVScv0zyseNfrlNo5UtrqDGvB31MfHNbTSdbPh24/aJDGFiAh83W8gzXMU+TgFISqbukV9C36OZTa6A+ryRmnhVSikrONemb1UNDuXvvBvAc/w/49+cQXNbJilpxkR+CX0r4sXamVabEamKV1++NscQvnnIPpF7WBxYF4sYw2/Yy/ZJSo5zo7+AjqWpbS6HejyfwnhVSilz6Gf7gRZ8jydZG3Qvp/N7utlKScm4rBZGfwF9l5Y2ejsa8HJK41UppZQwhDqpnrscxFA2RNPPqVzD7p7UkvJtSAouoO/T1kaXoRlvpThefb5NYI9U9n4/bmZJlB0dxyU09uSWlD9dU3H5/ITOtnob2jIx9fGqlFLW8sNU/SatDVcxNfKeruZuDvIUl5Qvr6fi8rmY3rZ6K7ozx3D11fZsSh7tsR8PRHRLcHvbZC7zpwyS8mFQSj5m1/Ndm72F/iw3Vm22LWJQ1B2vziBeSmFf13Of67Ik5Vo13k/Jh2wxv7Dd33A+G41UW1nyfgv1oux3C37J3BR3tpjHnMeWlOsLbXo+ZP9DAxsO1OYWw1QZP4voGVm/2/CPwB/BkLkn+J9MdT8AJOVGHRak6AN2kgveaRf9I2arum3g59FchtsxhHX2dLPnZX3XkCUpN36Vqo/XZZGvs9meQ/nMi2w5tldpH3yvd+Rmw9U2lr6f7JsMJWVfc1anbJ3NjdRNZadrcg2bvLyWc1vKaUHPXN3CertY5tPPjvPDX1K2DUndh+vEFL5Uo5O3Biu8/TvIx1U24Hcp+9JU2W0sh/nxLymbOqbwF2Vr+VGqbhKczQovqJV6TG1Yvz2rzjnMs28V2B6lk5cASdlzeyo/Wt9MydNx2vCYF9JKb0VcR61AOn2As5SV+lHDEF+sIylbOqTo2c6bz2NdTc2oO1udS527ysCtpF0S3+lOPGqnKr19yrkue5eUHel9MtK77B9tV7sz2otnRraVfC/Bfa7Jz1ljl6q4vc1eXggkZV6bFD+KsIShdIiuo80Z4m8GM7o9RkEiO70X79idjGybGOLDiCVl3pBUf7Su4ZqIHt5QkwtZ7AUz49tnHJ2wTtfnOorsTAa3jznCi4Ek57Ayu83kexGsyKrO6UzzQpmlrZi/UScxvT6amfYkCzPat9HEC4KkTPqbH658wJkBv0ijGicy0S5meXsvEU9Ra8Td9iKLi96P9oIgKXNastyPVkqZwhkBzmRV5wTG2b2UPEXtAD6yD1mex7oppW98kJQVv/CD9YttFlfRNJi+1eEcptq1nG4v0jZvUfrylD5WJdfb++ztRUFSpi7Un/ix+tW2jOvYKfE9a8NvWWi38rAtysuLw3dipLXP2baOK3w+lqTMGOyH6haLmodzckKf5F2DY3g8ha85StL2f9TPac/P8DZ+zrcR7OCFQZlmbk9n10fS1zJsYSH38h8mJmhEu3MG36e9rcm76ZzF+Jz8TbW5gUsteB7MZzBjLIMMWKqqnowL+Hd02TSTZ7gvRxfTbduJExlMH9uRGEX8mT9SnOW/pSWP0M9i563Hv+Z6yyADlqrqPs62CNs0lecYwSg25fjvrcGBHMUx7GMLEugNzmFOFv/8PgyjjWXO8+fixayzDDJgqSp25IMcrywJzypeYQQjmU5p1v+uLhzMQAbQzLIn2HIu4eEs/dk/5EZqW+K8e5dTmGkZZMBSVVzFdRahXAoZw2hG8x6rM/wn16MHvelLH1pb5kA8wKWszPCfWZd/ca6lTYilDOZVyyADliqvFuPpbhkqoJQZTGIyk/mAmZUOW/XoxK50pzs96EwNyxqcWZzNqAz+eQU8TW/LmiAbuYh/WwYZsFR5vXnTpe6VtoSZzGIuhSxmCYUUso5SlgPrKaE+0Jga1KEFBRTQghbsSEc6OVcVgWL+lz9kaIXeLjzPrpY0cV+m/sg1OVgaIAOWonUbF1oEqRL+y1l8WOU/ZT+eMXIn1DDOYb1lkAFLldOEaf5uSaqUdfySIVX6EwYyjEYWMrHGcAJLLIMqyxtE6baCn1kEqVLq8Q8ep6DS//4lPGe8SrTejGRHy6DKcgZLLzLAIkiVNJ/zeKkS/94f+I3FC8BMjvCxDTJgqXJ24T0aWgapkkoZwi8ruFrnen5h4QLxKf2ZbhlUcd4i1Cf83CJIVfiaegXj2bsC//yNxquAtOONCnRX+opP4RGMZz+6WAap0lpyHkWMLccP+6sxhMstWFAacAYjmWchVNHvXhK0Y7IvaZGq6AW+x4Iy/4nq3M4PLFSAVnFMRh8vqxTwFqEAPuVHFkGqooFM4sQy/vsa3GW8ClQjnmM/yyADliruPwy1CFIVteAJ7tvGj0aq8S/Os0TBasyL9LQMKj9vEepLBUz2oaNSBszkLMZ86z/9iz8nCd4iDmOaZVD5OIOlLxVyvu/ekjKgE6/zP1v8hOgq41UEWvECHS2DysdfEeprH9GAPpZBysAn6xH041VWfPH/n88Q7xdEoQmDeJRVFkLb5ymvb6rJ60YsKUNW8nNuB05kGDUtRzSm0uer6CwZsFRO7Xm3Cm9Xk7S5//A4D1LHQkTlBY6jyDLIgKWKOYZnPS4kqQx3cb5FUNlcg6UtfUR9bxNKUhn2YYMPHpUBSxX1OofTwTJI0jYdwSdMsgzaNm8FaWvaM45WlkGStmk9R2zleWeSAUtl6s2rLsyVpDIspBefWgZtnQ8a1daN4SKLIEllaM0walsGbZ1rsLQtEyngAMugHFpAI4ugoLSnKcMtgwxYqpgX2Y8ulkE5MpN9GcsR1LcUCsgBzOY9y6Bvcw2WytKct+lsGZQDK+nDFKA1d3OM5VBA1tOHCZZBW3INlsqylBNZaRmUdZs4iSkALOQ4fsIGS6Jg1GUYTSyDDFiqmKmcwSbLoCy7mFe/+r9LuZH9v4hbUgh25laLoC25Bkvb8zEzOMmbycqi/+VvW/wnC7mHWvT2uFMguvMxky2DDFiqmMkUcbhlUJY8yg8p/dZ/WsTLjOEIGlsgBeEIHmG5ZZABSxXzJq3ZzzIoC8Zw0jZvQs/gPnZjd4ukANRlX+7dylcFGbCkMg1nT7paBmXYZAayqoz/fi0PM5MBPsxRAehAMW9YBn3JFQ4qr3q8SF/LoAz6mIP5rBz/3K484AyqAlDEwbxlGfQ5f0Wo8lrHCUy1DMqYTxlQrngFH9KHaym2ZEq4mtzlbKu+5C1CVSRiPcpxtLQQyoAlHMFH5f6nS3iVF+lHcwunRGvpbUJ9yVuEqph2vMEulkFVtJIjGFfhf6sxf+VCi6dE28g+zvULvEWoivqUfsy0DKqSdZxQiXgFK7mI01hqAZVgtbnLe0MyYKky5tKfeZZBlbaek3m90v/2MPZhpEVUgh3AJRZB3iJU5XThddpaBlXCWk7kpSp/bl3GX1xMrMRaRTfmWoa0cwZLlfER/VlkGVRhazi2yvEKShlCHz60nEqoRtxoEWTAUuVM41C/oanC8WpQFW4Obm4ce3OTz81WQp3CAIuQdt4iVOXtxEt0sQwqpxUczdgM/5lHcQ87WFol0FT2psgypJkzWKq82RzCJMugclnOwIzHKxjBXjxncZVA3fiBRUg3Z7BUNQUM9yUm2q6FHMOErH2K/ZjrqWuRlTCL2ZXllsGAJVVWI57hUMugMnzCQD7J6t+wJw/Sw0Ln0DJmMYv5FFJIIRtZ+dWrjJpQgwIKKKAFnehEmxRfZ27gpx4qBiyp8uoxjGMtg7ZhPMeyMOt/Sx2u5Uo/0bJqHeOZyCQmMY0VFehMZ7qzF93Zj1Ypq9hG9qzAC6FkwJK+pSa3coFl0Fa8yCmsztHf1Z97fT5bFqziVd5gDBPYVMU/aVcO4mCOpH1qavcfzvQAMmBJVXM113o8aQv384MqX5QrooDbOdmyZ8zHPMFwRrMxw3/unhzFIPqm4GdWJfTwzYQGLKmqTuffLjXWN/yFq/PwpKof8A8aWvwqms0jPJK1HyZ8rh2ncjoHRV7JxzjVw8mAJVVVX56kwDIIKOJK/pmnv7szD3CALaikTTzNHbxESY7+vj24gLNpEW09S+nFux5WkqqqCx9R6pb6rZD+eT0Oa/IHiuxDhbdFXEPrPPSrDufwXrRVfcYLg6RMaMFIL1Qp36bSOQFHYh9m2IsKbB9xEfXy2rEBvBhpbZ1PlZQRtbjJy1WKt6dpnJAjsTH32Y9ybbP4ATUT0bO+vBZhfZ/3siApU85mrZetFG4lXJuwX4adzlL7Uua2hB9RO1E9O4J3ozsv9vSiIClT9vYGTeq2dZyTwCOxfZRzIpnZNnFbIpeXV+ccPouq0nd7SZCUOQXRrqhw29r2AXsn9EiszlVssEPf2kbRNcGfH024heJoar3eR+CmTw1LoKxZx3+oS28fBpIKD3E8cxI6tlJG8zyHRvwogIpbxU+5lEUJHuEGnudVDqJlFPWuyUZe8bCTlEnHsdi5gsi3tVwYwJFYn1spsVuUUsqrdAjk86MOf41kHmupj7+VlGmtGe4lLepbg3sFcywOZL7rrrgmsHsXhzM3ispf7sVAUqZV52o2GkWi3B4I7Ht5a55Ldb9m0CvAT5CCKLr2scslJGXDAXxiHIlsW8kPAjwSq3Fpah8i8kKwr7Kqzu8juFXY3wuBpGxozIOGkoi21+kU7LHYNbonLZVn+9/Af9Z0HCsD78DDXgYkZcsZLnmPZFn7FQl7oGhF1eYvET0EYPvbRr4fwedHj8BXY62P5DeRkhKpFcMMKIFvb7F7FMdiLIunt78tj+bmVLvA5x5/6iVAUjYN4lNjSrAzIddRK5ojsQkPpKBnhewf0adHQ14JuBfTXeguKbta8JBhJcBtHD2iOxbPDX5lT9nbfLpF1rH6Qb8j4mA//iVl24ksMLIEtK3gskjf/bAzY6Lt2jy6RNixOjwbbEd8K6GkHGjCEDYZXYLYnqF9xEdiTa6K8kltixL9tsGqqB3s44uXUcePfkm5sBejjC+JfzjlMSk4Evfnw8j6tox9Iu5Xfd4ItC+D/NiXlBvVOI+FxpiEbhv4M/VSciQ24u6oHqVxUOT9asrUIDvzgB/6knKnGf+kyDiTuO159kjZkXgqhVF0rphTU9CtnYJcx7kyNV9ZJCXEPrxmpEnQ9h4DUnkctuPlCLr385R0a19WB9idk/24l5Rr/VP5CpPkbZ9yYaS/GCyPalzO+qD792CKunVGgP3xlTmS8qAG30vN87WTua3itzRI/XG4d6Drez6fe6yfql7dGFyHVqesQ5ISox5Xscyok5fntN9OGw/AL47CmykJsIdL2TllnarFyOC6dIwnmKR8KeBvrDHy5DRc3ZW6S/P2HB3gIurTUtin9iwNrEs3eXJJyqdWXM8qo4/hKo9+HVgn/53SPp0WWJ8+8tSSlP+ZrD+y3AiU1XB1J5080LYhrJtPM2ic2k79O7Dzrosnl6T8a8pvI3k6UfIeI2q4KkvjoF6gU0L/FPeqGfODOvd+7OklKSmXuqv8dWFGt8X8yQXt23FiUB1N+2uETw3sIb6SlBi1OIOxRqMMbNO4yKdJl8OtAfX0M5qnvl9PBvUqI89ASQlzAA8FdeMmadvLHEM1D6Ny+Sigvn7fdtGRdQF1rJ8Nk5Q87biWJYalCr8D7XZ6ePCUW9uAejuO6jYM+FNAPfu17ZKUTHX5Di9RbHAq1zaGH9DQg6ZCTg9oeXtf2wVAA+YF07XhtktSsueyruITA1QZ2zJuYy8PlEq4JZgeP2mzvnJhMF1bkeL3fUoKRHWO5OHAX8+bja2IlziDOh4glTQxmPkrA/TXavFxMGeofZMUhOacz4tsMlhRSjEjuZQdPCiqoFkwt5+H2qzNnBPMefpDmyUpHC24gJcoSm20KmEMV9DOA6HKBgTT8e42azM1gpnDetBmSQpNSy7i5ZTFrGLe4mfsZPMz5JculQ7WpYH0bqatiplPw1HMmnME/Tk2+vmcpbzCyzzLfFueQY9zUhDj7M8rNmsL9ZlNi0A+o5bZLkmhqs6+/IaxUc5nvcu19PW3SFkxO4gjYKKN2qpQnod1sK2SFL4CvsMdTIsiWH3I3ZznSqssauUy6aDtFMhPFC61VfHyFqHSeOnswyH0ZW9qBjbyEqYwkjd5kwW2McuO5IUARrmWtqywWVs1nKMCGOVtXGyrYlXTEih1FvEETwAN6U0fetGTtgkf8ULeZQJjGe16jZzpGsQohxqvtunOIAKWr66KmDNYEjSjG73oRS92T9Ab3RYwnvGMZyozbFHO3cH5AYyyH6/bqm2oxWc0T/woV9OYUpslKX6NuSsRKzOep5nNyKvRAazfWeDPG8p0dxCrsHa2UbHy/evSN61kYSLGUejNwDwL4RbhoxTbqDI84pEmA5YkJUkbmgYwymE2qkyvUBjAKJ3BMmBJUmp0DmCMyxhjo8pUxEsBjNJ3LxiwJCk1OgUwxpcoslHbMdxjTQYsSfKiF1t4yH+NSjzWZMCSJC965ecbCLdvMZM91mTAkqSkSP7C4znMtU3lMDrxI2ziI1kMWJKUFu0TP0IXuMcSsJzDMmBJUmrsYHAwYOWML203YElSKjSlbuLHOME2lctsliR+jC1skwFLktIg+fNXpUyxTeWU/GXuBiwDliQZsBJhJittUzQBq8AmGbAkKQ1aJX6EU21SuSV/rs+AZcCSpFRI/s/mP7FJ5TYj8SP0FqEBS5JSoUniRzjLJpXbzMSP0BksA5YkpUIjQ0NE5lKc8BE6g2XAkqRUaBxAaFB5bWKBgV4GLEnKv+TfIlxskyog6U/Cqm2LDFiSlAYNEz/CpTYpooBVxxYZsCQpDZI+o7CWtTapAgoNWDJgSVL+1Uz4+FbYogpZbqCXAUuS8q9Wwse3wRZVyMbEX4dr2iQDliQZsAwMYUl+IPUmoQFLklIg6fMJzmDFVi9vEhqwJEkKTIlXYtlWScq/pN+Cc76jYuomfoTOSRqwJCkFkn65M2BVTB2POBmwJCn/kj6D5ZLouOpVyiabZMCSJANWvjW2RVHVy1+FGrAkKRWSfsOmYQCripKkwONNBixJyr/kzyg0t0kV0MKAJQOWJHnBCz8yGEfjCvQyYElSBqxJ/Ah3tEkVuMq19XiTAUuS8q8w8SPsaJPKrV3iH2ux2CYZsCQpDZYYsCLSyUAvA5YkecErj51tkgFLBixJCkvyZ7C62aRy29PjTQYsSUqC5M8odKG+bSqn7h5vMmBJUhIkf0ahBnvYpnLq4fEmA5YkJcFSShM/xp62qVxa0SbxY3QGy4AlSamwKYAfzve2TeXSJ4AxLrBNBixJSofZBodI9A1gjDNtkwFLktIh+Ze8LrSyTVEE0TU+aNSAJUlpMSvxI6zGobZpuxqzTwDHWqmNMmBJkgErKY62Tds1gFqJH6M3CA1YkpQaIVz0jqaajYoghBqwDFiSZMBKkB18VMN2VOOoAEY5y0YZsCQpLWZTEsAoT7VRZTqIdoZ5GbAkKTnWBzGvcLo3Cct0RhCjnGajDFiSlB6TAhjjzvSyUWVc3U4JYJTr+MhWGbAkyYCVLGfZqG06nLYBjHIaxbbKgCVJ6TE5kIBV11ZtwwVBjHKijTJgSVKahDGDVcDJtmoblTnBIC8DliQlzcesDWKcF9qqrTqPOgYsGbAkKWlKmBLEOA9lf5v1LTX5cSAjnWSzDFiSlC6hrI653FZ9y2B2CmKcn7HIZhmwJCldxgYyztPoYLO28DOPMRmwJCmZRgcyzppcZbM2cyz7BDLSUTbLgCVJafNRMLdvLqCT7fpKNX4XzFgNWAYsSUqd0mBu4NTiV7brKyexXyAjXcd7tsuAJUnpMzqYkZ5LV9sFQE3+GMxY32GjDTNgSZIBK8mx4ibbBcClAUVNbxAasCQplcazPpixHsFxNozm/MYALwOWJCXbhqB+Rn+D7yXkWgqCGesmA5YBS5LSakRAY+0S1OxNNhwUyAuePzeGlZ5gBixJSqfhQY32F/RMca/qcGdQV7Thnl4GLElKq8nMC2i0NbmDWqnt1W8D+yXlCE8vA5YkpVdYl8FeAT1kM7P6BvY8+wW+5tmAJUkGrHD8kn4p7FIT7qdGUCMeTqknlwFLktLrZTYF9pn+74B+SZcpt9PR4C4DliSFY0VwP6bvwH8Cm82pqis5LbARb+IlTy0DliSl26PBjfhI/pCi/vTm+uDG/CLLPbEMWJKU9oBVHNyYf8nglHSnI48H+MvJYZ5WBixJSruFvBHcmKtxH71T0JvGPE3r4Ea9gSc9rQxYkqShAY65Lk/TJfK+1OIxugc47hGs8KQyYEmSHqMowFEXMJy2EXelBvfT38AuA5YkhWoJrwY57l14LcAbaOVTjVs5PciRr+dZTykDliQJ4JFAx70rw2kWZbz6BxcGOvbnfMmzAUuS9LmhrAp05D0ZRZsI49VlwY7+Hk8nA5Yk6XOrA14305XX2DGiXtTg7oDj1Tyf4W7AkiR97Y6Ax74bb7JHJH1owBOcF/D47wnwqWoyYElS1rzNewGPviOjo3gJ9A68zqCAx1/CXZ5KBixJ0jeFfWlsxgjODbwDPXiLfYPeg5eY7YlkwJIkfdP9rA16/LX5N7dRO9jxf4cx7BT4MXSHp5EBS5K0uRUBvvZ5SxfyapAPH63FP/gPDQKv/kKe9jQyYEmStnRTBPvQh4mcENiYO/E6l0dQ+3+xyZPIgCVJ2tL4AF/7/G0teJJ/UT+Y8X6fSVG8uHodt3oKGbAkSVvz90j24yKmMCCAcbblce6iYRQ1v5dFnkAGLEnS1jzL9Ej2pBMvcA/NEzzCGlzGB5wUSb1LuNHTx4AlSdq6Um6IZl+qcR4fcTk1Ezm6AxjNkEjmrgCe4kNPHwOWJGlb7o/qRk9z/sEE+idsVJ0YylscENVxc4OnjgFLkrRt6/lnZHvUnZd4lT4JGc2O/B/TGRxZjd9ilKeOAUuSVJabWR7dPvVjFMM5NM+j6MhNfMTFAT8MdVv+4GljwJKUjIcZ1qOarUio5dH8lnBzR/E673B6ntZk7cvDfMSPqRthZccw3NMmjfwQlz63M/3py6F0SMh4VvE2LzOad9hocxKmIZ/QKtq9W8B93M6MHH6ZOI4LE7cOLJOO4FVPGknpsytX8AxLKU3otooXuIoeNipRfp7Y4yUzWzEv8j2aZbmKNTmKe1gVeS1f83RJK2ewlFb1OJRjOIZdAhnvPIbzPC+z2tYlQH0+YYfo93IjL/IEI5if8T+5Af0YxCkUpOBYOdgF7gYsKS2acjyDOTygl4V885I3kkd5nMW2Mc8uY0hK9rSUibzASMZkYHF/LXrRlyM5hDopqd4LHOXJYsCS4teE4zmNAcF/uBfzGkN5giW2NG/q8kFi1uvlRglTGctEpjCpglGrNl3pTnf2Z3/qpapmpRzAfz1ZDFhSzGpzHOcyMKrvzUW8yv08xjrbmxff4T+p3ffPmMlMZrGAQgopZAUlrGcdNWkENKIpBbSgNTvRkU50SOjT4rPvfs7xRDFgSfHanfP4XrS/+lrJw9zvKo+8fHq+wcGWQdu0lt2ZaxkMWFKMGvIdvs+BKdjTydzF/Sy15Tm1L2/7LEFt02/4k0UwYEnx6cRFXEDzFO3xBobyVybb+hy6h/MsgrZqLruz1jIYsKS49OUyTkrpuo/RDOFxij0IcqI1H9LYMmgrBvOoRUi3GpZAUanJmTzA1XRL7a2bDgzmuxQx2ZCVA2sg6meQq7JG8guLkHbOYCketTmXq9nZQgAwn79xm7cosq4O77G7ZdBmNtHLm/VygaZiCVcX8jG3G6++0pYbmM01NLUUWbWB71FiGbSZ641X8hah4ghXl/A436GJpdhCfQ7jIqozgU0WI2vmsQP7WQZ95QPOpMgyyFuECv0IPpVr6WwhyrSYP3OLH/lZ05gptLcMAqCU/rxqGeQtQoWtP+MYarzarpb8gykM9gtVlqzkYougL9xmvNKX3/+lMHXjH/5+q4Le5nLetgxZ8TCnWwQxn66ssAwCZ7AUpibcyHvGqwo7gDHcFe1Lg/LrchZbBHGJ8UoGLIWqGucwnStS+/rYqp7x3+cDrqK2pciwhZxLqWVIudt52iLoS/6KUGHZm8e4jIYWogrq0p8TmcIcS5FRH9OGfS1Din3AKf5eV9+cDZBCUYuf8AfnXjKklDv4OSstRAbVZ7wPHU2tTfTlHcugr3mLUKHozUSuM15l8MvVhUznRAuRQWs5k42WIaV+ZbzS5rxFqDBmBv7IHS7OzrhGnEE3XvOFOhmzgI0MsAwpNJKLXYOnLb/FSkl3CPfS0TJkzSLO5xnLkCHVeZEjLEPKLGFvPrUM2vLDQEqymlzDq8arrGrF09xHAwuRESWczizLkLKen2W80rc5g6Uk68gD9LEMOTGdM5lgGTKiJ6OpZxlS42qutwj6NtdgKbnO4Vlfg5MzLfg+NRjpOpIM+IzFDLIMKfEUl1kEbY0zWEqmBtzOdy1Dzo3gLAotQwbcyQ8sQgp8wP4+7EQGLIWjC4/R3TLkxVwG+77CDKjDm+xnGSK3mgOZahm0dS5yV/KcwjjjVd605w0utAxVtoFTWWgZolbK94xXMmApFDW5jmE0thB5VIfbuJ/6FqKK5nAcayxDxH7JoxZB2+YtQiVJM4b5DKGEGM/xzLcMVXQSj/o1NlK3c5FFUFn8FaGSY2deYX/LkBBt+Q4jjVhVNJ3VDLQMERrBWZRYBhmwFILevOQDRROlEWfyPtMtRJWMpYADLENkpnAM6yyDDFgKwRk8ThPLkDC1OZ1qvG4hquQF9mZ3yxCR+fRjkWWQAUsh+AM3UdMyJFA1DqMtw338aBWU8gyH0d5CRGIp/fnIMqg8H59SvkP+P7nYMiTaU5zBestQBU14mX0tQwRW0p//WgYZsJR8tbmf0yxD4r3OCT6vukpa8DrdLEPg1nGMt8xlwFIIGvCYv7EKxHiOcd1JlbTiDddiBW0jJ/G8ZZABS8lXwAhvmwTkQwYwxzJUwU6MpINlCFQRp/GEZVD5+Qg85UsLXjFeBWVXXjMeVMls+vtksUAVc67xSgYshaAZI9jLMgRmZ96kk2Wogo/owyeWITgb+Q7/sQyqGG8RKh9a8jI9LEOQ5tCPGZahCtrwksvdg7KBM3jSMsiAJeOVjFjJ1poXPQOCsYaTeMkyyICl5GvK694cDNxMDuZTy1AF/sAjFMs5hrGWQZXhGizlVn2eNV4FrxMv0NwyVEEhR/CmZUi8xRxuvJIBSyGoxTD6WIYIdGM4DS1DFaxkAA9ZhkT7hL68axlUWb6LULlTjbsYbBki0Y4DeYRiC1FpxTwOHGYhEmos/ZlrGWTAUghu9J2DUenEnjzqa6Cr5HXmcbSfwwn0KCexwjLIgKUQXM2vLUJkdqcxL1iGKnmXtziBOhYiUW7ifDZZBhmwFIJT+Je/WY3QgSzmv5ahSmYwguNobCESYhMXc60zs6o6L3nKhX0YSQPLEKViTuRZy1BFLXiYIyxDAiziDF6zDMoEZ7CUfW15hRaWIVLVGcRzLLQQVbKW/1CHPn7lzbNRHMFky6DM8HRWtjVklE++itxsDjBiZcAJ3Oetwjy6nR+58kqZ/PYpZTfC3228it5OPEFty1BlT7E/71uGvFjP97jIeKVM8hahsuvnXGERUqA9jRlhGaqskAfpTFcLkWPvM5AXLYMMWApHP/7tLGlKHMhMJlqGKtvAMGbS3wc35ND9nMg8y6BMcw2Wsqc942lpGVJjDQcyxTJkREce8KVSObGY83naMigbnF1QttTiIeNVqjTgcZpYhoyYxWH83hcRZd3L7G28kgFLofmr38BTpwu3W4QMKeIaDmOmhciadVzBkcy3EMoW12ApOwZyszegU6gbc3jPMmTIHO6gJgf5RTgL3uQ4nrMMyiYvgcqGlkxiB8uQSmvoxQeWIYP25k56WYYMWs413EyJhVB2+c1I2YjtdxuvUqsBD/pMrIx6jwO5mvUWIkOepTtDjFfKPm8RKvMu43KLkGJtqcUrliGDShjNo/RgJ0tRRfM4h9+x0kIoF7xFqEzrxjjqWoaUB4J+jLQMGf+0Pp2/0N5CVNI6/s51rLEQMmApTNV5k96WIfVm0t1LWRbU4zJ+RSMLUWHPcpm/yVRueYtQmfVzvm8RRDPq+OqRLChiNPfRkh5+Oa6AdzmD61huIZRbnqTKpF15j3qWQUAxfXnLMmRJH/7KQZahHD7lGu52SbsMWApbdV7nYMugL0ynp799y6L+/C/7WoYyLOFv3MQ6C6H88BahMudSLrYI+koLqvGqZciaGdzJJLrRylJsRSF/5Lu8RpGlUL44g6VMac0HvolOm9nI3kyzDFn+DD+VP7KbhfiG1dzimivlnw8aVab8zXilLdTmJouQZaUMoxun846lAGA+V9Oeq41XSsK3HykT+vCmR5O24jSGWYSc6MtlnJzqZR8fcQu3ue5PBizFpAbj2csyaCvmsQerLUOO7MJlnE/9FO75aK7nWUo9BJSkC6NUdT/mPIugrWpMdV+ckzPLGMGdFNKR5qnZ5xXczQX8Lx/afiWLM1iqupZ8SFPLoG3YyJ58ZBly/Ml+GBdwMnUi38/R3MEw1tpwGbAUpyFcZhFYRSGFwGo2ATVoDDShpUv/gWGcZhHyoICzuYCuUe5bIfdxJ+/bZBmwFK+dmUbtVAaqKUxmJjOZxRwK2biNf64mBbSnIx3ZmW70SOVcXykH+iu3vNmH0zmNjtHsz0qeYigvbvOMkwxYisRDnJGivd3Eu4xhDBOYUckFtTuxN73pw77R3775ptfp56mS10/6/TmNwbQPei/W8AyPMMLfCcqApTTYl3dSchR9xHCGMzJj6z3q0JujOYruKTlSjuV5T5c8q85BnMzR7BHcyBfzAk/znKutZMBSerzC4dHv40SGMixry7Q7cAqns3/05+JkelLsCZMIHTmKozmchokfaTHvMJwRjPd1zZLSpT+lUW/z+TO75+iS92tmRl7NszxhEqU2R/AXxrIxkUfLB9zNGRTYJoXLGSxVxRscEumelfIit/FMTl8VW53+XMiJ0T6dbhp7Og+RQPXYj4PpTe8E/ABjI+MZwyjGsMjGyICl9DqU16Pcrw08yA1MzdPfvjNX8L0Abt5UxukM9bRJrOp05QB60J0eOZ45Wsf7TGIy4/kv62yEDFjSS/SPbp/W8y/+woI8j6I5V3AFjaKr7mT28mUmQWhLd/aiO13oRKus/A2rmcknTGESk/nI1XkyYElfO4gxke3RJu7kz3yakNG04BdcGt1b5U7mCU+dwNSnE53oREc60ZICWlBA9Qr+GStZzBIKmfPFk+NmssTCyoAlbd1zHBPZ/vyUDxI2pvZczxlRnaUT2Nc5rAgUUEABLahLdZoA9agLNGU1RRSzEljLBopZQiGFFLLJkklS+fSI6vdt0xmY2Er3ZnxUtR7oySNJ0rbcHc0FfxPXUTfRta7OhayKpt4+blSSpG1oxbpILvf/pUcQFd+ZVyKpeEmOniwmSXn+bixV3CUJn/Mpn1Juog+TghjrDPpzBRsiqHo1LvMEkiTp2+qwIIKZlNkBPiS1J9MiqPxqmnsSSYqdM1iquDPYIfh9eIP9GRncqN9lvwge1dmACzyJJEna0tvBrwK6LuDX0VTj5xQF3oFZfrWTJGlz3QO/uK/nO8H34ChWBt6FIz2RJMXN75GqqB8EPfqlDOSh4Hswgt7MCXoPvu+JJEnS1+qwOOhbU7tG04l2TA56HrHAk0lSzJzBUsWcQItgxz6TfnwYTSc+5RDeDjion+XJJEnSl0YEO2cyhTbRdaMJo4LtxyRPJkmSPteO4kAv59NoFWVHGjI22Ii1ryeUpHh5i1AVcVqgR8wcjmJRlB1ZzVGMD3Tsp3tCSZIEBDpbMo+OUXelJdMD/clBNU8pSZI6UBLgZXwVPaPvTCc+CzJiHehJJSlW3iJU+X0nwBmHYs7k3eg7M5PjWBPguL1JKEkS4wOcI/lxarozOMD5xbl+xZMkpV3nAOPVfanq0F8C7FBfTyxJcfL7o8prUHAjnsjFqerQL3khuDEf54klyYCldDsmsPGu5GTWpqpDxZzDZ4GN+VhPLElSmjVkfWA3n85JZZ+ODG4l1k6eXJJi5AyWymcAdYIa72MpW3/1pRe5ObARH+3JJcmApfQK6zL4GRemtlNX8UFQ4/UmoSQptaoxL6jbTqemuluHBHWbcC31PcEkxccZLJVHV9oFNNoneTTV3RrJ7QGNth69PcEkGbCUTocGNNY1/Cj1/boqqFdbH+IJJsmAJQNW0v0vn6a+Xyv4tUeXJOWTb7NXeXxK20BGOpfdU/b0q219dXqbfQMZ6waasc6WSYrtY1jant2CiVfwC+MVACX8PJix1mF/GybJgKX0CecWzhSG2q4vvM7LHmGSZMBSch0czEh/Q4nt+kY1QuEyd0lSCk0L5IlK41xTuIXnAuncMjsnKTbOYGl7GrFrICO9nlLbtZnrAhlnUzrbLEkGLKXLPoEcJbN4wmZt4U3eCmSkvWyWJAOW0iWUS9+NFNmsrVTFo0ySDFhKoH2CGOVq/m2rtuLxQB67asCSZMBSyoTxuMqHWWmrtqKIewIJWH4WSYqKv91R2eqxOohL3wG8Y7O2qiOfBNHBXZhhsyTFw2+NKluXII6RycarbZrFK0GMczdbJcmApfTYI4hRPmSjyvCwAUuSDFhKlt2DGOUwG1WGx9lowJIkA5a87FXMOD62UWVYzktGeUkyYMmAVTFP2abteNKAJUm55a8IVfbxsZKGiR/lvoy3VWXakTkBnOvNWG6rJMXCGSyVpVUA8Wox79qo7ZjHlABG2dFGSTJgKR3aBTDGEZTYqHJUKfl2tE2SDFhKh/YBjPEN21QOIz3aJMmAJS955TfGNpXD6ADm+drZJkkGLKVD8i95y/jANpWrTtON85JkwFIyJH9VzNuuwCqntzzaJMmApWRI/gzWRJtUTpMMWJJkwFIytDQ2GLBypoVNkmTAUjo0MzYYsHKmiZ9HkgxYMmAlQalvISy3QgoTPsIaNLJNkgxYil9t6id8hPNZb5vKbZaBXpIMWPJyF0NkSJKZHnGSZMBS/jU1YBmwDFiSZMBS2gLWZzYpqmo1tUmSDFiKX93Ej3CJTaqAQo84STJgKf9qG7Cikvxq1bJJkgxYil/yL3fLbFIFLDXSS5IBS17utm+tTYqqWgYsSQYspUDyZ7A22qQK2GDAkiQDlgxYMUQGqxXXESdJBixVWc3Ej3CTTYqqWgYsSQYspUCRETAqyY8vBmZJBiylQPJXONWxSRWQ/BVO3vKVZMCSAcvIEJg6HnGSZMBS/iV/PqGeTYqqWgYsSQYspUDyL3fNbVIFFBjpJcmAJQPW9rWwSVFVy4AlyYClFEj+5a7AJkVVLQOWJAOWUmB94kfYyiZVQEsDliQZsJR/yX+VckebVAGdEj/CpTZJkgFL8Ss0YBmwPOIkyYClzFrPmoSPcEdfrhJVHF1ikyQZsJQGSb/g1WAXm1ROTRK/Ym0Tq2yTJAOWDFhJ0N0mlVMPqiX+aCu1TZIMWEqD5K+JMWDFUylXYEkyYCklkj+DtZdNMmBJkgFLBqzM2t8mRVMpl7hLMmApJeYkfoQ7sLNtKodGAcz1zbJNkgxYSoeZAYyxj20qh4OoYcCSJAOWDFjldbBtKoe+AYzRgCXJgKWUCOGSd5RtiqRKM2yTpHhUswQq03KaJH6M3XjfRpWpBQsD+DLVMPFvDpCkcnMGS2WbFcAYncPanoEBnOkLjVeSDFhKjxBWYZ1gm7bjeKO8JBmwlCSfBDDGvrSzUWVowHEeaZJkwFKSTA7iKD7VRpVhEPUDGOUkGyXJgKX0COOyd4aNKsPpRnlJyjV/Raiy1WEVtQIY555MtVlb1Zq5QXSwPfNslqR4OIOlsm3gwyDGeb6t2obzgohXS41XkgxYSpcwbhKeTV1btRXV+H4Q4/QGoSQDllImjEtfgeuwtupIdvUokyQDlpInlF93/dQVhVvxM48ySTJgKYnGBTLOPRlos7awF/0DGel4myXJgKV0WcjHgYz05zZrC78IZJyrmGizJBmwlDajAxnn4fSzWd/QNZh1aW9RbLskGbBkwEqqP9qsb/h9MOf3aJslyYCl9BkTzEj7cJTt+sLenGKEl6R88XdXKs9RsoTmgYz1ffaiyJYBLzIgkJEW0ZxVNkxSXJzB0vaVMjaYsXblIhsGnBpMvIKJxitJBiyl06iAxvr7YGbbsqcufwlotN4glGTAUkq9GNBYC7g+9f36DZ0CGu0LnmCS4uMaLJXvOPmUNsGMtpQjeTnF3erO+CBe8Py59RSw1lNMUmycwVL5IktIc1jV+D/qpbZXNbgzoHgFI41XkgxYSq8RQY22c4pvE17N/kGNd7gnlyQpvZpRRGlAWwnHpbJPvdgQVJ9K2c2TS5KUZqMDu3B/RqvU9aghHwXWpRmeWJLi5C1CldeIwMbbmoepmbIe3UXnwEbsDUJJUsp1D2xupJTSlK3E+mmAHRrgiSVJSrv3g7t8lzA4Nd05jE3B9Wdx6uYYJaWGtwhVfkODG3E17uXAVPRmF4YGGFYe9b2RkiTtHuAtqFIWB7cuqeIK+DDI3vTzpJIkCSYFeRl/n4Kou1KfMUH2ZQE1PKUkxcpbhKqIoUGOeg9eplm0PanNoxwU5MgfpdhTSpIk2CXImZJSShlDwyg7UoOhwfakryeUJEmfeyfYy/mrEUas2gwLth+znD+XFDM/4lQxdwY78n68FtlarDo8wqnBjv5uSjydJEn6XCNWBTtnUsqEiF6f05jXAu5EEe09mSTFzBksVcwqHg549D15iz2i6ENbXuewgMc/grmeTJIkfW3/gOdNSilladDB5HPdmRN4F07wRJIkaXPvBX5x38AlQdf/tKBv05ZSynxfkSMpdt4iVMXdGfj4a3Mr91M/yLHX5DoeDv73kPf4ihxJkrbUNPgZlM8XvO8WXOXb80YElS+ikyeRJEnf9o8ILvOlrOVyqgVU9ZMpjKLuQz2BJEnamk5siuJSX8qTtAmi4s24J5KKl3KAJ5AkSVv3SDSX++Vcnvi1iIOYG0293/DkkSRpW/aP5oJfSimv0z2xld6Fp6OqtQ9okCSpDG9Eddkv5r4EPuW9AdewLqo6f+AvlyVJKsvxUV34P38E6dU0SEx9a3Mp86Or8YWeOJIklaU6U6O7/JeykCuol/fa1uJ8ZkVY3fkJqK0kSQk3OMIIUEopi7guj78tbMjlzI60sj/ypJEkaXuq8W6kQaCUNfwfe+e8orvxN5ZHW9PZ1PGkkSRp+46PNgx8vv2XC2mak0o24GzeoCTqal7gCSMpTXMQUlW8Ff1jIzfwEsN4kpVZ+vPrMoDBnBT8+wW3Zxa7sdETRpIBSyqPgYxIxX4W8TbP8DITKM3Yn9mJAfRnII1TUcFzuc/TRZIBSyqvN+mbor2dz2hGM4aJlZ6NqUlX+tCHvuyUorp9QDeKPVkkGbCk8urNqBQeR0V8wGQmM5OZzOKz7fzTLehER3amG93pSu0UHiUn84SniiQDllQR/+E7Ka/ABgq/2EpYx3qgNg2Agi+2tD/96VWO8DSRZMCSKmZHpifoCehKmmL2YZJlkJQuNSyBqmwltTjMMmgb/sU9FkFS2jiDpUyox7RULdlW+S1jV5ZYBklp45vtlQnr+KVF0Fb93nglKY2cwVKmjqSRqXpcg8pnGnuxyTJISh9nsJQZpZzPesugzZRwofFKUjq5yF2ZUkhNl7prM//HvyyCpHTyFqEypzYT6GYZ9IUFdGW5ZZCUTt4iVOZs5Ae+DkVf+aHxSlJ6eYtQmfQpBRxgGQQM448WQVJ6eYtQmdWQKT4RSyyj63bf0ChJEfMWoTJrNed4m1D8yHglKd28RahMm00D+liGVLufP1gESenmLUJlXi1Gsb9lSK2Z7M1KyyAp3bxFqMzbxJmstgwpVcSZxitJ8hahsmEpyzjOMqTS73nQIkiStwiVLU9ygkVIndEc6o8cJMmApewpYBwdLUOqLKEXcyyDJLkGS9lTyImstQwpUsJZxitJMmAp2yZykUVIkf/hBYsgSZ9zkbuyaRKt2c8ypMJTXGYRJOlLrsFSdtXiVfpahuh9yP6ssAySZMBSruzABNpYhqit5kCmWgZJ+pprsJRtn3GCi92jVsxZxitJMmAp1/7LuZRYhmhdyVMWQZI25yJ35cL7rGeAZYjSDfzRIkiSAUv5MZqWvgA6Qs/yA0otgyRtyUXuyl2Yf5zjLUNUxnEYayyDJBmwlE+NeIOeliEan9CbRZZBkrbGRe7KnVUM5H3LEIlPGWC8kiQDlpJgMUcywzJE0smZlkGSDFhKhk/px2zLELgVHOVcpCQZsJQkcxjAAssQsDUcxwTLIEkGLCXLRwyk0DIEah3HMcoySJIBS8kzmSNZYhkCtIbjed0ySNL2+JgG5cvuvEw7yxCUFRzLaMsgSQYsJVknXmZnyxCMZRzN25ZBkgxYSroOvEwXyxCEhQxgsmWQpPJxDZbyaQ4HM8kyBNIp45UkGbAUiIUczljLkHBT6ctHlkGSDFgKRyH9eMgyJNgr9GWuZZCkiqhhCZR3xTwOHGYhEunfnMFayyBJBiyF6HXmcbTHY8KU8gd+QrGFkKSK8leESo4BPEpjy5AYGzmf+y2DJBmwFLq9eNwnYyXEZ5zGm5ZBkirHRe5Kkon05EnLkADjOMB4JUmV55oXJcsGhrKOw51bzavbOZWllkGSpLgcw1JK3fKyreP7HoCSVFXOEyiZOvM43S1Dzs3gFN6zDJJUVd4iVDIt5R5q0duvADk1jOOZZRkkSYrbAOZ70y5H2wrO9oCTJCkdWvK04ScH21vs4sEmSVKanMNqI1AWt01cRy0PM0mS0qYrYwxCWdomc4AHmCRJ6VSNC1lpHMrwtpHrqOPBJUlSmrXlcUNRBrfRdPWgkiRJMJiFRqOM/Gbwcl+UJUmSvlTAbRQZkaqwlfAQ7TyQJEnS5vZghEGpktt4DvYAkiRJWzeIT4xLFdwWc7lvb5AkSWWpzeWsMDaV+xeDQ2jsQSNJkrZvB25ivfFpu48SvZuOHiySJKn8dmSIIWubWzFD2dWDRJIkVVwHbmOTcepbvxd8hr09OCRJUuXtxn1sNFZ9NXP1GD09KCRJUtXtwDUsTX24Ws997O7BIEmSMqcRlzM7teFqEdfRxoNAkiRlXi3O5J3UhaupXEQ9my9JkrKpK9exJBXRah1D6U81Wy5JknKhLoN5iZKo562uormNliRJubYHf4lwXdYCbqaXzZUkSfnUjWuYEUW0KuQ+BlHTlkqSpCSoziH8kwUBR6u7ONJoJUnJ5qJYpVU3jqM/h1IrmBG/zzO8zEg22jxJMmBJSdacI+jPsbRL8BhX8zrP8DzzbJckGbCkcFSnK33pQx86JWhUnzKKMYxiIsW2SJIMWFK42tKHPvSmO3XzNIKNTGMMoxnNLNshSQYsKSY12Ilu9KIr3did6ln/+5bxPuMZz1Smst7yS5IBS4pdY/agE53oREc60YHaGfgzi5jLTGYxk1nMYDpLLbMkGbCk9KpOO9rRggIKKKAFLWhBA+pQH2hMDWrSCFjDRkpZDqxnHWsppJAlLGEJhRQyn3kUWUpJitf/A1Rl5f80jEgsAAAAJXRFWHRkYXRlOmNyZWF0ZQAyMDIyLTA0LTA2VDE5OjA4OjQ0KzAwOjAw4X1K9wAAACV0RVh0ZGF0ZTptb2RpZnkAMjAyMi0wNC0wNlQxOTowODo0NCswMDowMJAg8ksAAAAASUVORK5CYII=;fontSize=14;" vertex="1" parent="HgpjItm5ChHet3baD9MJ-62">
          <mxGeometry x="45.849999999999994" width="52.3" height="52.3" as="geometry" />
        </mxCell>
        <mxCell id="HgpjItm5ChHet3baD9MJ-37" value="&lt;span style=&quot;text-wrap: nowrap; font-size: 14px;&quot;&gt;&lt;span style=&quot;font-size: 14px;&quot;&gt;Transaction Stream&lt;/span&gt;&lt;/span&gt;" style="text;html=1;align=center;verticalAlign=middle;whiteSpace=wrap;rounded=0;fontStyle=1;fontSize=14;" vertex="1" parent="HgpjItm5ChHet3baD9MJ-62">
          <mxGeometry y="52" width="144" height="32.16" as="geometry" />
        </mxCell>
        <mxCell id="HgpjItm5ChHet3baD9MJ-63" value="" style="group;fontSize=14;" vertex="1" connectable="0" parent="1">
          <mxGeometry x="90.23999999999998" y="442" width="144" height="90.15999999999997" as="geometry" />
        </mxCell>
        <mxCell id="HgpjItm5ChHet3baD9MJ-19" value="" style="shape=image;verticalLabelPosition=bottom;labelBackgroundColor=default;verticalAlign=top;aspect=fixed;imageAspect=0;image=data:image/png,iVBORw0KGgoAAAANSUhEUgAAAgAAAAIACAMAAADDpiTIAAAAA3NCSVQICAjb4U/gAAAACXBIWXMAAHovAAB6LwEf/fvJAAAAGXRFWHRTb2Z0d2FyZQB3d3cuaW5rc2NhcGUub3Jnm+48GgAAAwBQTFRF////AAAAAAAAAAAAAAAAAAAAAAAAAAAAAAAAAAAAAAAAAAAAAAAAAAAAAAAAAAAAAAAAAAAAAAAAAAAAAAAAAAAAAAAAAAAAAAAAAAAAAAAAAAAAAAAAAAAAAAAAAAAAAAAAAAAAAAAAAAAAAAAAAAAAAAAAAAAAAAAAAAAAAAAAAAAAAAAAAAAAAAAAAAAAAAAAAAAAAAAAAAAAAAAAAAAAAAAAAAAAAAAAAAAAAAAAAAAAAAAAAAAAAAAAAAAAAAAAAAAAAAAAAAAAAAAAAAAAAAAAAAAAAAAAAAAAAAAAAAAAAAAAAAAAAAAAAAAAAAAAAAAAAAAAAAAAAAAAAAAAAAAAAAAAAAAAAAAAAAAAAAAAAAAAAAAAAAAAAAAAAAAAAAAAAAAAAAAAAAAAAAAAAAAAAAAAAAAAAAAAAAAAAAAAAAAAAAAAAAAAAAAAAAAAAAAAAAAAAAAAAAAAAAAAAAAAAAAAAAAAAAAAAAAAAAAAAAAAAAAAAAAAAAAAAAAAAAAAAAAAAAAAAAAAAAAAAAAAAAAAAAAAAAAAAAAAAAAAAAAAAAAAAAAAAAAAAAAAAAAAAAAAAAAAAAAAAAAAAAAAAAAAAAAAAAAAAAAAAAAAAAAAAAAAAAAAAAAAAAAAAAAAAAAAAAAAAAAAAAAAAAAAAAAAAAAAAAAAAAAAAAAAAAAAAAAAAAAAAAAAAAAAAAAAAAAAAAAAAAAAAAAAAAAAAAAAAAAAAAAAAAAAAAAAAAAAAAAAAAAAAAAAAAAAAAAAAAAAAAAAAAAAAAAAAAAAAAAAAAAAAAAAAAAAAAAAAAAAAAAAAAAAAAAAAAAAAAAAAAAAAAAAAAAAAAAAAAAAAAAAAAAAAAAAAAAAAAAAAAAAAAAAAAAAAAAAAAAAAAAAAAAAAAAAAAAAAAAAAAAAAAAAAAAAAAAAAAAAAAAAAAAAAAAAAAAAAAAAAAAAAAAAAAAAAAAAAAAAAAAAAAAAAAAAAAAAAAAAAAAAAAAAAAAAAAAAAAAAAAAACyO34QAAAP90Uk5TAAECAwQFBgcICQoLDA0ODxAREhMUFRYXGBkaGxwdHh8gISIjJCUmJygpKissLS4vMDEyMzQ1Njc4OTo7PD0+P0BBQkNERUZHSElKS0xNTk9QUVJTVFVWV1hZWltcXV5fYGFiY2RlZmdoaWprbG1ub3BxcnN0dXZ3eHl6e3x9fn+AgYKDhIWGh4iJiouMjY6PkJGSk5SVlpeYmZqbnJ2en6ChoqOkpaanqKmqq6ytrq+wsbKztLW2t7i5uru8vb6/wMHCw8TFxsfIycrLzM3Oz9DR0tPU1dbX2Nna29zd3t/g4eLj5OXm5+jp6uvs7e7v8PHy8/T19vf4+fr7/P3+6wjZNQAAG+JJREFUeNrt3XmgDlUfB/Dz3OduuLi49rJGocguV0VaLK1a5BUphSxRedVLi7WUpFcLikSKZK+klCSkq5AosmW5dq4t3HXeP+ot55zZzsyZeeZ5zvf3531mzvq5zzNz5pwzhMiKyn0+WL7lhKZ45OzJmNOzAlEuSo/YqCH+HwVr2qvV/UWHnkav0/FNI4X6v9thdDj/W9BTle4Pv4re1o0345Xo/+JL0NUGMVsFAUVw8WccHyogYCa62UxAONb7/1F0smnMinEBzXPQx+YxM7YFrEMPW8UHsSzgFvSvDQExfCWYge61ER/FrIC26Fy1BXyBvlVaQKHz6FqlBdyEjlVbwMt8PfPWzlI4flZMAP8U4EgTonJMUOs7II2v5GNK9z/5Uq1fgQZcFTOT1QawW63rgBu5Gk5Uu//JObWuBDtzFXxScQDn1boX6M/V724AUEnASK56jQBAJQETudqVAgCVBLzLVS4ZAFQSAACOAMSOAABwBiBmBACAQwCxIgAAnAKIEQEAYAlgT3YsCwAASwALbo1lAQBgDYDEsgAAsAEglgUAgB0AMSwAAGwBiF0BAGAPQMwKAACbAGJVAADYBRCjAgDANoDYFAAA9gHEpAAAEAAQiwIAQARADAoAACEAsScAAMQAxJwAABAEEGsCAEAUQIwJAABhALElAADEAcSUAABwACCWBACAEwAxJAAAHAGIHQEA4AxAzAgAAIcAYkUAADgFECMCAMAxgNgQAADOAcSEAABwASAWBACAGwAxIAAAXAGIfgEA4A5A1AsAAJcAol0AALgFEOUCAMA1gOgWAADuAUS1AACQACCaBQCADABRLAAApACIXgEAIAdA1AoAAEkAolUAAMgCEKUCAEAagOgUAADyAESlAACQCCAaBQCATABRKAAApAKIPgEAIBdA1AkAAMkAok0AAMgGEGUCAEA6gOgSAADyAUSVAADwAEA0CQAALwBEkQAA8ARA9AgAAG8ARI0AAPAIQLQIAACvAESJAADwDEB0CAAA7wBEhQAA8BBANAgAAC8BRIEAAPAUQPAFAIC3AAIvAAA8BhB0AQDgNYCACwAAzwEEWwAAeA/AWMDseABQAYCxgA/jAUAFACYCwgCgAgBjAbPCAKACgMAKAACfABgLmBkGABUABFQAAPgGwFjAB2EACDCAT1NlRde84AkAAEsAfsT7YQBQGoA2HQDUBqA9BgBqA8hNBwClAWj70gBAaQDaUABQG0BmPAAoDUDroCaA+IubVIxYb5dqWr1QYAAsUg5Ame4frT2Qr2nagU/ui0Ddr5+zS9M0LWvzwl4XBwFAploAqg9alX9BtgvL+lzzIm8WXJD9T6OqRxyAVlIhABWnsOPiR2v7WvGS29gb8SlVIg3gGmUApI4+y1f/B1+vgt/nC5AzqUJkAfRSBcDtx3Tr/6yP9b5dtwRHbowogKcUATCkQL/+55P8q/cG/SLkD4+LIIDhSgAoNNOwARr5Vu1CuUZl+DIncgBeVgFA6lrjBujpW7WbaUGMNxUAEF5i0gDjfav2g2b9MGOi9/HagLa1uIynKgBgXDCeibcyK8Ysf8qQzGX8buwDeDAg98HFC8zK0QcAPIors83aPb+of/XeZlaQ7EYA4E0sNf0CmOJjvfublmRHIgB4ETeYtvrvPn4BkNBy07L0BgAvGn2dWZvntPS14lVPmM7PSgIA+dHZrMk31ve55pW/MitOPwCQH6uM23v7yETfqx7qsynPsED7EwBAdpTN1+/7Dwe1TiWRiSLpj04zUHAdAMiOHnrtPKcciXQUHac3KDAWAGTHYr6VszqTIMQ1O/mibQUA2f9o/CBQfjoJRlTM4gVcAgByoynfxmNIUKIbX7juACA3+Dk4WwK0BOEzrnTPAYDc6M3lNDI4/a8zRjEJAOTGCC6nOwIEoIb/yzRUAzCZy6lSgACEuMvAHwBAbsznHrqSIMX3bPF2AYDcWMBNAg4UgDXcw0kAAAAAAAAAAAAAAAAAAAAAAAAAAAAAAAAAAAAAAAAAAAAAAAAAAAAAAAAAAAAAiBSAuBLxAKAqgDI9Fu/P1fIPrxhYHQDUAxB69I9/lpiMTQYAxQBU/ZpK7dfGAKAUgIdOM8nljQgBgDoA9Hab6QsAygAovlcHwB81AEAVAO/qbuqwKg4A1ABwq8HGLoMAQA0AawwAHI8HABUAlDXc6PU6AFABgPF+cy8BgAoAhniw0TcARBGACYYAlgOACgCmGAJYDQAqABhhCGA+AKgAoKcHb90BgCgCUNsQwL0AEFgAi7ihe+dpbTd61Ucxx0lyO1nvAQC5wW3Cs915WoMMALzjPMm5bFrnAEBu7GMz+tp5WuHv9V/z4GLX8f9yqaUCgMwIc7uyT3eRWq1zegDaukjx31xqtQBAZlzJZTTKTXIDdfp/spsEO0m8oAQAnRjKZeTqZelxH3HprSnmJsGrfX9/pGIA1nMZtXOXYJfj9A3Af8KukqvKle9kIgDIC51b9ytcJlnh0wsSW1/XZWqJBX7vZawWgPn8DL7CrhO9a96fKwNylz7i/h1Pv3Il3BQGAFnRnP8CmC0j3UJ1b+jUrkFxby5StAcBQFIkZvCt24EEKy7li5iZBgByQuf57cnkgAEgOu81XZ4AADJigM5N+/Sg9b/OUJCmTQQACfG43hsj2wUOwMV6U03fiAcAt7//uvN3jiUEDgD5Vq+gy0oBgKto9aPuc5sxwet/g8nGu/8VAgDH0XCx/nPbzKIBBBBaoV/YdW3jAMBBpF37yg6jmTsdSRDj8lyD4h6eckv5OACwHZd0ennZzvOacSwlwYwxJmXO3bv6ze71QgBgGcWnaBaRXTOgAFL2WhV9aSUAsIjWlo0YqFeG0nGXZdlPdgUA06h8yrINtxYKLADysWXpC64BALMr6S8tW3BfleD2P0n53rL8O1MAwDi6Wrbf0dokyFHyZ8sajAUA45hl1XqnGpFgR/kdVlX4BQCMY6dF4527lgQ9qmZa1CE/BQAMB38s2i73ZhL8qH3UohYtAMAoylh9AbSMAgDV9lvU4loAMIzdVpcAjQPf/xWsLgIKigGAYXwU5TcBhJTcZDmOgYtA43jY8iYqs2qg+79ohmUN3gAA44hbZdl+O8oHuP+Tl1kPZKUCgEnUPGvZgj8lBhfATMvSa20IAJjFbUcsm3BwYPu/nWXZz/UjAGBxKzjXqhHPVgnqD4DlKOCaywgAWEajvtM3nzFrxkUBBTDcrNDnd8wZ1EriarFYnxJWtOZt7xw2asxbA9n/NYxmMZ2Z26V2SelfNwpMCo1rbXBTsKtwEAF8rl/YbZ08WcWkyLTwO7bqNuqIAPb/nfoTQnt7tIRBlYUhhefoNeuhcPAAfKVX0IwKnl1xqrI0LKR7aXV94Pq/vN4KthnerWFVaHHoM7J3dPIk+uv1v5f3nAotD5+t83aXwA0H6ryHJiMZAORcB2zkGzdoU0Oq6Vz/VSAAICdae/btWu46SU8XdV5D0psAgKxYwuVzWkJGDRbs0zTt2FIZ40r8bOBtCQAgLerz/1913KaZMPTvxZzTXO8TlcDfA3QiACAvNkl/rBr+5sJV/G73c6rMj/8mA4DEGMVl9LDUH+2ZLlNL58o3lwCAxGgsezS4XrbUbec6cuXrAgAyIz5fcnVnMMn94C65J7iGqA0AUoObbP+Vu/S2sJsOuBtZGsc1REkAkBpr2Yx+c5VcUe4bpaGr9D6S904rANANbuX9aVfJNeMK3s1VeivZ5PYCgNxYIPdfrKXcF1DgtXEAAAAAAAAAAAAAAAAAAAAAAAAAAAAAAAAAAAAAAAAAAAAAAAAAAAAAAAAAAAAAAAAAAAAAAAAAAAAAAAAAAAAAAAAAAAAAAAAAAAC+AKgpef9hAIgyAKGTbHoVAUAlAGQ5k9wBAgBKAfgPk9w0AFALQOJPVGpHygCAWgBIvZwLU+tIAEAxAOSuY//sD/MUAQDlAJBy8/9Kau3lBACCDmC+F5vwXPnQhBXTHk2PJ/IB7AIAufGOJvfGXXJwr4z/EQDkxqhAvzqsmv+vtlMNQB8up2EBAsBvFDoBAORGBy6njQnBATCPK93TACA3+I39tKGB6f+7+cI9AAByIzWXyyq3YUD6v7TOK04bAYDkWMo38oH2gej/+vzbQrR9IQDw/CpQ07TJRSPe/QnP5egUzPNrQPUAVCzQE5D9w6QeDSP1Crlwna7/Xan/nvM2ACA9MjSjyP5hYAReJdt5pfE77k8lAoD06K6ZxOqaPte8zDyz4rxGAED+F+5msyY/28TXilc8ZFaY02UAwIO41azNtV+T/az4J6ZleZYAgBfxrWmrv+JjvbuZluRgEQDwJJrmmTV7XmH/6v2LKYCHCAB4E/1N2725b9VOyTcrxxQCAF7FZLOG7+dbta82K8aKRADwLBK/jey9l4070p1pBAC8i9Im94J9fKt2uskFYB0CAF5GsU8N276pb9UuYng1uv5iAgDeRtwYg7bPLeRfvTcZlGFeEQIAnkdX/TH40T7W+1/6N6IjQwQAfMi13ER+doi2KcnPis/X6f9Ftf0sgcoACLl0Ljf83sDXipfL5B5HtfC36dUGQEj90dT7v7+u4nPNS35wYfb7J1zvd9OrDoAQUmvwij05mqZpZ1b2Dflf9zu/zNI0Tcs/sPbFZhHIHgAIIYSESte7sU4EZoP8GdVvalg+UpkDgOIBAAAAAAAAAAAAAAAAAAAAAAAAAAAAAAAAAAAAAAAAAAAAAAAAAAAAAAAAAAAAAAAAAAAAAAAAAAAAAAAAAAAAAAAAAAAAAAAAAAAAAAAAAAAAAAAAAAAAAAAAAAAAAAAAAAAAAAAAAAAAAAAAAAAAAAAAAAAAAAAAAAAAAAAAAAAAAAAAAAAAAAAAAAAAAAAAAAAAAAAAAMoD+GIJwpf4IqAAEBELAAAAAAAAAAAAAAAAAAAAAAAAAAAAAAAAAAAAAAAAAAAAAAAAAAAAAAAAAAAAzwCcQPgUAQWAKWGYE4gAAAQAIAAAAQAIAEAAAAIAEACAAAAEACAAAAEACABAAAACABAAgAAABAAgAAABAAgAQABA4VQqQuhuxQAwyZaze15Cs3v7DZ8wZ9HMt18d+WTHRiWcl6BQtfS7+j0/deE7o/p0uKpKMgAEH0BC+pAv/mAKcyzjnfvKC+ce12LsDiahraObin0NJbakoq71GZXoM1IBQAhA2rOHjJbMbR5/vUjPtXnroG4y+15vHW8/mXL0yWcrWZ7xFH1GSwAQAFBjwlnTZZMZt9r8/y3x6kmTZI6PLuoQgPYBAHgHIOH5fMuVsxsus5FtuPdRi2QOPBByBkC7CgC8AlBjrY2l08dSrHNt/bONhNY2dwZgTQgAvAHQ/YydtfNPW+ZZdb7NZfjvV3QCQOsMAJ4AGGSr07KKW2XZ7JjtjRgO1HUCYG9hAPAAQA97ffaMVY43ndHsR1YLBwC0ZwFAPoB782312BGrq/d7c4Q2Yzl7swMAf1QEANkAWtjst4EW+fXJ18Qit4s4AG06AEgGEL/RXnftL2Se3XPiGzIVDBAHUNAYAOQC6K/XNdlL3nj15RdGPDv4lWXH//rTIxbf//o/9HPHPXl/mw59n5/2i+7nbYUBaCsBQCqAsvxGWVkz7r7w577yvWs0TdueYJrZRcf5rto9/sJx3ytGbtO5F0gTBqDdAwAyAUzmMp/M32q1XGna7ISEvuJHjR4Js0d12M8dNU8cwO/JACAPQBH22d8J/Z5uY57X42wN8t4oqXNY8UkF7IEPCgPQBgOAPAAdmZy/r+IkqyvOM8mcNBrrbcn+4pyuJgzgdDkAkAZgLn3QwdJOckpibyROG4/1t2AfOa4KiwLQpgCALAAp5+iD2jvK6T9M8c9cbXJwO3bY4RFhAPn1AUASgLvoYyY6yighkxngaWV6eCdmwGhLSBSAthwAJAGgnwLtLeIoI3YIYIzF8ROY49sIA9A6AIAcAOOoQ95yltF3dEZ7rBiVYp4ZfiYOYEciAEgBMJM65D5H+TRhCn+75RmPMKO7lwoD0P4NAFIAfE0dUtlRPjPofBZZnxG3nj7ldXEAJ0sDgAwAW6hxWUfZlGeu6mvaOOda5q6xuDAAg+tVABAEQE3dPxfnJJthAs9q/o5f6ZMeEweQdwUASACwnDqkmpNsttLZPGzrpKeZ8UdxANpSAJAAYDp1SDsHuZSmczlX3NZZ1eizcgqLA9BuAQD3AEZRhzzuIJfb6Vxm2jxttZ2eMgewNQEAXAPoSR2yLiyeyxibgzpM9KZPG2IHwF6mlQYAgGsA7ehj+onnQv8rn7O78q8snfFiOwBmfcIsMisFAG4BlM6mJwOUE80kmU4gw/aJe+hJSHF2AFyaYzV+AACCAMh79EELEwQzuZo+f5LtExfSJ15hBwB5lXnqVAsA3AJgx3GXFhXLhGnxnrZPHEqf2MsWgBJWTxEAQBQAyWCyXi+2F8TH9NlNbJ94G33ie7YAkH4WDxIBQBhAVzbvPTeJZEJfmefZL3glOtef7QGIZ4YQf4kHAJcA4pfzi29K2c/kD+tuNAj62zzTHgD2tkXrCwAuAZCymVz2h7rYfSqQRJ84R6B4K+j7R5sAyBL6b0dLAIBLACRdZ23glvvt3dAzXSQyo2SedZX1ANTJo/84DgDcAtBfHLazR6KNPGrTJ70oULx36FMr2ARA3mAeI9QEALcAyEjdsfa9/ayLkU6f8pRA8V6hT61jF0BalskEFABwBID0K9AlcHCg1fS+W2zczRvEM/SpV9sFwK1Cuh4AXAMw3NvhyFPm+0IxN5EdBYrH3NLfahtAwm/0nzeGAcA1AHLDEYOHrkcHm40NDqAPvlGgeF3oU7vZBsCOIV04/AgATgGQMob7ex3ra3xTyMwHayxQvJutZ4UZACDMUuTDxQDAPQBCumQZEVhpuEHkePrAGgLFYx4jDRcAUJdZW/QSAMgAQCrOMxJwfojBsMAY60t5o2htPSXECAB5i9nPpDoAyABASPpqIwKr9YeHB9NHpQsU70761N4iAMowmxHPBQA5AAi58zejGXhV9A7vRR90s0DxutOn3isCgDzJlO5aAJAEgMT33Kcv4IDemmxmfwmRtWXM7fxNQgCSdtIfrYsDAEkACEkeqL/d9ymdXR9uMH02ZxrDrW8gjAGwPyD/32kGACQAIKTY0FN6AjLLcEc2oo94WqB4zA3EJWIAyDfM91MKAMgDQEja2HN6i3G4AQFmgcdYgSzoNSlaSUEADZhbwVEAIBMAIRUn5fECnmOPKkF/PkUgg0X0EvGwIAAylVmSVBkApAIgpMkmrlz51zDHxNH/h58LJL+GnpBORAGUP01/+iEASAZAEkfksgXjpuHSG4Qesp94mJ5MtlMYABmi8YMQACATACEN2NVY+exowCbraR36UdvGqnJzAMm76Y8zQgAgGwC5iN0BcBRzwNuaw/XFzMPAMeIAuM2pugKAdACk2JfM7RazdKibnUWeekFvT6W/sZAFAHaJ8b7CACAdAEliZuLfSX9cw+m0YOY+vowTAE2YiUzDAEA+AJJeYDrv8zD16Xa7qYbooabfiBMA7MrGsxcBgHwA5HUqmfeZT+l5JAUX2Uy0Dl24qc4AXMTsdT4DADwAUIL6CljOfDqQzmWQzURH0Kc95AwAu8S0YD4AyAdAqCdv25gPr2JmaNr8BfidPq2WQwCF92lmAQBSACygfmfZ0SLmoUFdW0m2ZKYdhhwCYO8mAcALAPTMzxLMp8uM5ueZBbMsyODFMTYAhDIAwHMA9NKxKubDMfvsrCstfMp8mb99AKQ5APj8DcCWjX1bQFcbKTIzybaGnAMgswDAzk+3GwDU1I1j3MfMrp8HilkmmHbM3kQiWwAqnwMA/dhAp5nqOKGPzS/zS58XnRXCVPhkihsAzGaXAPD35dEJ6x0YbEX8KdMHwlz5c2qJ3QJorxJXAFIOAIDuEC6d5C7HCdFLeEbwBzRgSv+V+XVgIvN0Ib+6OwDkAQDQC2YjhdWOE6In79XTOeJbTWCjkPjZzNEfE5cA4tapCKCBxY5slU4ZLJ4Rjdr5lk972rLlNxkMCLNX7QXpbgGw759QAkDCZu2TBmYHLGaSNHgtS1Jviz0g4ukJAaN1D+JeQGw4LyD8AXvoy8Q1APb1lyoAeFrTNG3pA0aX9onT2SQ76R94jZY1ppLZpeQ0Ohn9Vzam7GCzG69/ZV+GW3+6MUkCgGrnVQNQ46+b3+yFnXRuu0NtvmNTPFlIP6FnNE3LW9TNaGfAYu/Z+yFpzs0h/11nrVdcH24FerbZswPbAMiLqgG4YIuEvIyX2lMIivfXWeBpNGP/ry/4vGX99L4H2uw2WofNhs4+U9OYDaDjWv/IHzSQSAFQ7JBaAO5njs/7cdZL/W5rUPvGB5+ZtPiMQFMkXvAq553v9brighu4UIVeP7OpGL8TNEGnc7VNg/9+C1FS+8mHdY5YHicHAOmhFIC0o5pg7AzZGizQTqyY/drTD3Uc+MbiLTojrIdNXghUS9eddvynTyeOn7NqV7bup1mViCQA4Y0qAZgm2v9aW4OUBoskknOdWaGuOiZcqgP1iCwA7IYjMQ2gtXBLTzBK6nORVO43r0adfYKl2m71mjoRAOwbKGIYQPI20f7fZnSvH39aIJVhVvWotEWoVOvLEpkAauSoAqDsPMH+/6OZUVJNBVJ527oiaRkC6S23fmwsBIDdezaWrwFafCfS/4eMB417204ku7edmqQstp3g7CQiGUDqUYXGAe7ebrult5j80sb1PWkvkd/tbgF59y5b6W21tZ2UGADSR6lnAb1/tNd1n5U0TafCHDuJzC9puzLJg62vK7Ies/dyMkEA8ZvVehx82XDrr4HvW1smc7NlKh83FqpO+akFpsnlvZlmMyVBAKSNcvMBmr12yKypN9xhJ5FQs1f2GKdRMK++cIUaTMg0TG/3+MttpyMKgHsEGvMACAk36v+h7v133jdP2N+5N3TVuO16/7YnF/ap7qhKoaYv/KqT3k/DhDQJA6iVq+aMoEqdXl+545+h2EPfTnnqjlKipSjcsMvoRb8d+XMEOP/olpULhqXHu6nWpYPeXbLh4J/TSfIOrP9s6mPVBFNIXUDFE9ZnDKTPuFwRAH9GkWrN27dqWLNcIXelCReveElanLTKhctd2ape2TgSzIjpaeEIAEAAAAIAEACAAAAEACAAAAEACABAAAACABCBBXAxusafuDigAHqia/yJngEFkJGCvvEjUjICCkBbhx8BP34AdPaWiQSASXpT8TbMQngcG/RmwU2KAIAhGiIwMSQCADqj2YMTnSMAoBqaPThRLRIXI6vR7kGJ1RG5Gu2Fhg9K9IoIgKRtaPlgxLakyNyQtkfTByPaR2pIYgbaPggxI3JPpb5D60c+vovgU9iyuAyI/AVAWRLBSF2IHohsLEwlEY3Qk3nohMhF3pOhiD+cankQ/RCpONgyCI8nyy8qQFdEIgoWlQ/IE+qqLxxCd/gdh16oGqBJCgn3LEOX+BnL7kkgAYtLBkz9fFMWusbryNr0+dQBl0jrtv8B5AGJ0sBRLqAAAAAASUVORK5CYII=;fontSize=14;" vertex="1" parent="HgpjItm5ChHet3baD9MJ-63">
          <mxGeometry x="43.765000000000015" width="56.47" height="56.47" as="geometry" />
        </mxCell>
        <mxCell id="HgpjItm5ChHet3baD9MJ-40" value="&lt;span style=&quot;text-wrap: nowrap; font-size: 14px;&quot;&gt;&lt;span style=&quot;font-size: 14px;&quot;&gt;Extract&lt;/span&gt;&lt;/span&gt;" style="text;html=1;align=center;verticalAlign=middle;whiteSpace=wrap;rounded=0;fontStyle=1;fontSize=14;" vertex="1" parent="HgpjItm5ChHet3baD9MJ-63">
          <mxGeometry y="58" width="144" height="32.16" as="geometry" />
        </mxCell>
        <mxCell id="HgpjItm5ChHet3baD9MJ-55" value="&lt;span style=&quot;text-wrap: nowrap; font-size: 14px;&quot;&gt;&lt;span style=&quot;font-size: 14px;&quot;&gt;Banking Customers&lt;/span&gt;&lt;/span&gt;" style="text;html=1;align=center;verticalAlign=middle;whiteSpace=wrap;rounded=0;fontStyle=1;fontSize=14;" vertex="1" parent="1">
          <mxGeometry x="611.5" y="145.60000000000002" width="144" height="32.16" as="geometry" />
        </mxCell>
        <mxCell id="HgpjItm5ChHet3baD9MJ-59" value="&lt;span style=&quot;text-wrap: nowrap; font-size: 14px;&quot;&gt;&lt;span style=&quot;font-size: 14px;&quot;&gt;Gold Transactions&lt;/span&gt;&lt;/span&gt;" style="text;html=1;align=center;verticalAlign=middle;whiteSpace=wrap;rounded=0;fontStyle=1;fontSize=14;" vertex="1" parent="1">
          <mxGeometry x="872.5" y="247.60000000000002" width="144" height="32.16" as="geometry" />
        </mxCell>
        <mxCell id="HgpjItm5ChHet3baD9MJ-46" value="&lt;span style=&quot;text-wrap: nowrap; font-size: 14px;&quot;&gt;&lt;span style=&quot;font-size: 14px;&quot;&gt;Country Coordinates&lt;/span&gt;&lt;/span&gt;" style="text;html=1;align=center;verticalAlign=middle;whiteSpace=wrap;rounded=0;fontStyle=1;fontSize=14;" vertex="1" parent="1">
          <mxGeometry x="611.5" y="252.59999999999997" width="144" height="32.16" as="geometry" />
        </mxCell>
        <mxCell id="HgpjItm5ChHet3baD9MJ-44" value="&lt;span style=&quot;text-wrap: nowrap; font-size: 14px;&quot;&gt;&lt;span style=&quot;font-size: 14px;&quot;&gt;Silver Transactions&lt;/span&gt;&lt;/span&gt;" style="text;html=1;align=center;verticalAlign=middle;whiteSpace=wrap;rounded=0;fontStyle=1;container=0;fontSize=14;" vertex="1" parent="1">
          <mxGeometry x="611.5" y="437.76" width="144" height="32.16" as="geometry" />
        </mxCell>
        <mxCell id="HgpjItm5ChHet3baD9MJ-36" value="&lt;span style=&quot;text-wrap: nowrap; font-size: 14px;&quot;&gt;&lt;span style=&quot;font-size: 14px;&quot;&gt;Bronze Transactions&lt;/span&gt;&lt;/span&gt;" style="text;html=1;align=center;verticalAlign=middle;whiteSpace=wrap;rounded=0;fontStyle=1;container=0;fontSize=14;" vertex="1" parent="1">
          <mxGeometry x="349.5" y="373.29999999999995" width="144" height="32.16" as="geometry" />
        </mxCell>
        <mxCell id="HgpjItm5ChHet3baD9MJ-42" value="&lt;span style=&quot;text-wrap: nowrap; font-size: 14px;&quot;&gt;&lt;span style=&quot;font-size: 14px;&quot;&gt;Fraud Reports&lt;/span&gt;&lt;/span&gt;" style="text;html=1;align=center;verticalAlign=middle;whiteSpace=wrap;rounded=0;fontStyle=1;container=0;fontSize=14;" vertex="1" parent="1">
          <mxGeometry x="349.5" y="493.3" width="144" height="32.16" as="geometry" />
        </mxCell>
        <mxCell id="HgpjItm5ChHet3baD9MJ-85" style="edgeStyle=orthogonalEdgeStyle;rounded=0;orthogonalLoop=1;jettySize=auto;html=1;strokeColor=#999999;fontSize=14;" edge="1" parent="1">
          <mxGeometry relative="1" as="geometry">
            <mxPoint x="468" y="470" as="sourcePoint" />
            <mxPoint x="657.6600000000003" y="416" as="targetPoint" />
            <Array as="points">
              <mxPoint x="564" y="470" />
              <mxPoint x="564" y="416" />
            </Array>
          </mxGeometry>
        </mxCell>
        <mxCell id="HgpjItm5ChHet3baD9MJ-79" value="" style="endArrow=classic;html=1;rounded=0;endSize=3;startSize=1;strokeWidth=1.5;strokeColor=#999999;fontSize=14;" edge="1" parent="1">
          <mxGeometry width="50" height="50" relative="1" as="geometry">
            <mxPoint x="214" y="238" as="sourcePoint" />
            <mxPoint x="604" y="238" as="targetPoint" />
          </mxGeometry>
        </mxCell>
        <mxCell id="HgpjItm5ChHet3baD9MJ-80" value="" style="endArrow=classic;html=1;rounded=0;endSize=3;startSize=1;strokeWidth=1.5;strokeColor=#999999;fontSize=14;" edge="1" parent="1">
          <mxGeometry width="50" height="50" relative="1" as="geometry">
            <mxPoint x="214" y="128.70999999999998" as="sourcePoint" />
            <mxPoint x="604" y="128.70999999999998" as="targetPoint" />
          </mxGeometry>
        </mxCell>
        <mxCell id="HgpjItm5ChHet3baD9MJ-81" value="" style="endArrow=classic;html=1;rounded=0;endSize=3;startSize=1;strokeWidth=1.5;strokeColor=#999999;fontSize=14;" edge="1" parent="1">
          <mxGeometry width="50" height="50" relative="1" as="geometry">
            <mxPoint x="216" y="347" as="sourcePoint" />
            <mxPoint x="367" y="347" as="targetPoint" />
          </mxGeometry>
        </mxCell>
        <mxCell id="HgpjItm5ChHet3baD9MJ-82" value="" style="endArrow=classic;html=1;rounded=0;endSize=3;startSize=1;strokeWidth=1.5;strokeColor=#999999;fontSize=14;" edge="1" parent="1">
          <mxGeometry width="50" height="50" relative="1" as="geometry">
            <mxPoint x="218" y="468.97" as="sourcePoint" />
            <mxPoint x="369" y="468.97" as="targetPoint" />
          </mxGeometry>
        </mxCell>
        <mxCell id="HgpjItm5ChHet3baD9MJ-83" value="" style="endArrow=classic;html=1;rounded=0;endSize=4;startSize=1;strokeWidth=1.5;strokeColor=#999999;fontSize=14;" edge="1" parent="1">
          <mxGeometry width="50" height="50" relative="1" as="geometry">
            <mxPoint x="740" y="228.97" as="sourcePoint" />
            <mxPoint x="891" y="228.97" as="targetPoint" />
          </mxGeometry>
        </mxCell>
        <mxCell id="HgpjItm5ChHet3baD9MJ-88" style="edgeStyle=orthogonalEdgeStyle;rounded=0;orthogonalLoop=1;jettySize=auto;html=1;strokeColor=#999999;endArrow=none;endFill=0;fontSize=14;" edge="1" parent="1">
          <mxGeometry relative="1" as="geometry">
            <mxPoint x="735.6" y="123.6" as="sourcePoint" />
            <mxPoint x="889" y="229" as="targetPoint" />
            <Array as="points">
              <mxPoint x="822" y="124" />
              <mxPoint x="822" y="229" />
            </Array>
          </mxGeometry>
        </mxCell>
        <mxCell id="HgpjItm5ChHet3baD9MJ-89" style="edgeStyle=orthogonalEdgeStyle;rounded=0;orthogonalLoop=1;jettySize=auto;html=1;strokeColor=#999999;endArrow=none;endFill=0;fontSize=14;" edge="1" parent="1">
          <mxGeometry relative="1" as="geometry">
            <mxPoint x="737" y="413" as="sourcePoint" />
            <mxPoint x="889" y="230.32999999999998" as="targetPoint" />
            <Array as="points">
              <mxPoint x="822" y="412.94" />
              <mxPoint x="822" y="229.94" />
              <mxPoint x="889" y="229.94" />
            </Array>
          </mxGeometry>
        </mxCell>
        <mxCell id="HgpjItm5ChHet3baD9MJ-91" value="" style="endArrow=classic;html=1;rounded=0;fontSize=14;" edge="1" parent="1">
          <mxGeometry relative="1" as="geometry">
            <mxPoint x="309" y="623" as="sourcePoint" />
            <mxPoint x="1057" y="619" as="targetPoint" />
          </mxGeometry>
        </mxCell>
        <mxCell id="HgpjItm5ChHet3baD9MJ-92" value="&lt;font style=&quot;font-size: 14px;&quot;&gt;&amp;nbsp; PIPELINE&amp;nbsp;&amp;nbsp;&lt;/font&gt;" style="edgeLabel;resizable=0;html=1;;align=center;verticalAlign=middle;fontSize=14;" connectable="0" vertex="1" parent="HgpjItm5ChHet3baD9MJ-91">
          <mxGeometry relative="1" as="geometry" />
        </mxCell>
        <mxCell id="HgpjItm5ChHet3baD9MJ-95" value="" style="shape=image;verticalLabelPosition=bottom;labelBackgroundColor=default;verticalAlign=top;aspect=fixed;imageAspect=0;image=data:image/png,iVBORw0KGgoAAAANSUhEUgAAAMgAAADIBAMAAABfdrOtAAAAD1BMVEVHcEw/hiQ/hiQ/hiQ/hiSp6tK/AAAABHRSTlMAc8AsHAYLPgAAB2RJREFUeNrtXG2WoyoQDdALMIYFqGEBJHEBLXH/a3p2EpWPKiiQmTnvnObf9ESvVVRdqi7i6fQ7fse/HY/beRjUvA4z9OeLrnh/sdx/BocZzo8qCBjABtRfDkLcEgjHcUSrZuoYLoUQc9YwZ/2nIV4wmdbc1VwycmBAM5ZwPV8e6zifWzAmel1sxpIOGkygEMk0JWYk4lP4UU5ymXTNv+Tn6zV5gXKMoHr45pjf0zHyAt/xck/F6HNzi7U0j8lyiJfTFAHlvnnqejpKRVgksw2jfDXajEHusU1Ir4+sPyrqME4N8wTKOrE68ggHMXaUJ27IYYw9SAFTVDWM1SlXJLSmSvXNC8XA3jK6Dsgn4zTox+up1njdroOmxNQrCBkUX6KuIe+HniCQpiLIiIHULNA54P7qIF8ACAOj4aC7gkCqmIrb/UCQijPPwYdWVU0RMA9X5Mftbt8IPXf1SAW42bqe1UBpsXuN81xr1ZJoxTJSi8yMQreBMvR4RWTVbtB6wjMqZmK9ngDJbv+8Gf8McJUxx2CCjhxeyrjbYpW3y+YGLrRvrueFEoBnhNEcB9EnpoKeNF+4WMKTw0z4CQehoOZao40P0Gj3n4xAQBogRDaTlj7+vPeiSx+PCArdmttPmDjfKcrK5Ain74iAdEDa5ukejcVf3zCtdVhaZUsrEiZ0H7tVpVb4fvFo2PUiGzIQvB5QwRUDOFVUebBBYzXk+gnMtSiQgbMV6bR4rFoBs2K5fxOrVjSteA3BPiPFaQypelnNBgW7GatZcmMgVet6HgPRFUEmLOpqVdxYPmBJWtydPDGQ7v8EgjA9ys7FIF0WemF/0mX50Y30NKfEguiLBCJJ3cUcA0k2jXdSA4snNieAvBtO2s90Dt9Atb8uY3qUOcUjv7PElw2GVfsXv3VOhjruFIEpesbTLdKTgk8vCOL+URBBIoEKBaerHgnibk8EBErT0X1u4p5ShDwgwlFuxCpahzzisQFQJ/MiVtH6cBkH+QZ1imeoW0S3QCKrBmCk9Jpl5pSQUzbTQ9MlApXE73IzmR7i+q3jfjqmGJXYhJ3jIBMsKu1JvzSUg95bZFC4iJVwARm8fmwkcInViHf5ICYI4CeHbiVkJJRZJMIDgn4FbCPAQLK0lCCUWYQTAq5Xb7MVbH2LBtknXi4UGmYfE0bE9S22088jAe6DrDdn2IaepSlcIKlx0unw3sJKYUv2HWayrxhVu4m6T/iIJpe1b21N/xjbZnYph29e4jO6Plhizz4xO4hJkafcHkXMeLVk62MXnygghzlcb99ZRlLYSsvVZa9SViGmOFxvxxSP1lqtL+K83M4QU8ZgfWr8GEiq2v0WQHfYFIfrnTxX8drU1vqW5Pg8ngQDzOZ65jz8mKhNnVdR+lUzBbeDbK53b8vmRPMSvOOkVzeaCNd7AaWSesUdkNChqyyu96d6TPc+NxWUMndgKi2u95Ocz+lmz3NZf9E3aFHd/yZBlS7V7N2gq1AQAWuBSX0H0q0bjOtZRCE/5cw/EC4b13MYJKxvf96/iwfzhHI9EeQdUF7tJWTc+o3rae66w3+X8Up243qhCBPPkGXj59q+RevYnetBf13hatyHfztd3H60XV2q4UBemegSIEle8Sv+YFoSDMQzQCTGBilZltNVboYmdkpgzgAZt/bkw75PqlSeoderPQm8F61SN6Hr9cx2kfOPpDvoUjoPO+9vavSQQWQ41xM1D8h6vfdmlbRclMxoql7vvw7GLReQQDrqvDfwv5MitswB8f3cEe9BldKDMLVckPSG50929obGwtR6uuS8uiDh0mWwMLW6jmSEuhdztL4JtB4PRNO11i90lY+ACBKIIYIgc5LeSmREkGDi95BiJJCZCGJwEJOmCwII8xxvvRDKaSDaBjF7klhZJrzaweIuQp0QgDxhzlHuf427B75oIA0RZK9AhfUiMKF2U0QQt2+110kiSIfUejaI8zb2m346MsdKHwSx5GQXx84b24TVwnmOGIjcpbTWqYYJ657j0RjIqjO+I9sLiSYTBJmTYBnYQo1Qizj3jVni7nJYvyNUVZwM4pqyGSKIIIYE4jbTV2pNH3BobE7cDmXKKqed38QtsRxmtbiUxkBkgGzqo70jwKkgmgpyurXD4J58I3WEdpgn5qS8t/VBnpkgpC5d/S2Q7gAIqZqWHshUAJL1JCWWqFyf4tXKwV7NB8kVCEld55fXx5aAJPtnfgxEkEFMOQhN02DHQQwJZE52Wgd1JtupeM9YEQTvfo9qf8dehxzpIF0xiKLpserICRTKNstWg5QeLlZEP4zlJ4OEpB4pY+XnjyQtzDedtODIzroLRNLh71lfH9gvU9Q9KduUrEPZ+wv4xA0Fln3Y/9Hmn7+SeZ8tcI4RXDLDZDuwo6NGqKwvL5xQyW6pdyGgx9k/2nEtSCv30EHvfHZjGFL7UenxF75ScvI3pemngTKZqP3DZuTCFHw2xoI5U5w2HP2ez9KxqYQRVT5NtOQDcrqs1sePNsfdnCM71T/j9Dt+R/H4Dz1sMKm6TMqOAAAAAElFTkSuQmCC;fontSize=13;" vertex="1" parent="1">
          <mxGeometry x="668.28" y="392" width="42.43" height="42.43" as="geometry" />
        </mxCell>
        <mxCell id="HgpjItm5ChHet3baD9MJ-96" value="" style="shape=image;verticalLabelPosition=bottom;labelBackgroundColor=default;verticalAlign=top;aspect=fixed;imageAspect=0;image=data:image/png,iVBORw0KGgoAAAANSUhEUgAAAMgAAADIBAMAAABfdrOtAAAAD1BMVEVHcEw/hiQ/hiQ/hiQ/hiSp6tK/AAAABHRSTlMAc8AsHAYLPgAAB2RJREFUeNrtXG2WoyoQDdALMIYFqGEBJHEBLXH/a3p2EpWPKiiQmTnvnObf9ESvVVRdqi7i6fQ7fse/HY/beRjUvA4z9OeLrnh/sdx/BocZzo8qCBjABtRfDkLcEgjHcUSrZuoYLoUQc9YwZ/2nIV4wmdbc1VwycmBAM5ZwPV8e6zifWzAmel1sxpIOGkygEMk0JWYk4lP4UU5ymXTNv+Tn6zV5gXKMoHr45pjf0zHyAt/xck/F6HNzi7U0j8lyiJfTFAHlvnnqejpKRVgksw2jfDXajEHusU1Ir4+sPyrqME4N8wTKOrE68ggHMXaUJ27IYYw9SAFTVDWM1SlXJLSmSvXNC8XA3jK6Dsgn4zTox+up1njdroOmxNQrCBkUX6KuIe+HniCQpiLIiIHULNA54P7qIF8ACAOj4aC7gkCqmIrb/UCQijPPwYdWVU0RMA9X5Mftbt8IPXf1SAW42bqe1UBpsXuN81xr1ZJoxTJSi8yMQreBMvR4RWTVbtB6wjMqZmK9ngDJbv+8Gf8McJUxx2CCjhxeyrjbYpW3y+YGLrRvrueFEoBnhNEcB9EnpoKeNF+4WMKTw0z4CQehoOZao40P0Gj3n4xAQBogRDaTlj7+vPeiSx+PCArdmttPmDjfKcrK5Ain74iAdEDa5ukejcVf3zCtdVhaZUsrEiZ0H7tVpVb4fvFo2PUiGzIQvB5QwRUDOFVUebBBYzXk+gnMtSiQgbMV6bR4rFoBs2K5fxOrVjSteA3BPiPFaQypelnNBgW7GatZcmMgVet6HgPRFUEmLOpqVdxYPmBJWtydPDGQ7v8EgjA9ys7FIF0WemF/0mX50Y30NKfEguiLBCJJ3cUcA0k2jXdSA4snNieAvBtO2s90Dt9Atb8uY3qUOcUjv7PElw2GVfsXv3VOhjruFIEpesbTLdKTgk8vCOL+URBBIoEKBaerHgnibk8EBErT0X1u4p5ShDwgwlFuxCpahzzisQFQJ/MiVtH6cBkH+QZ1imeoW0S3QCKrBmCk9Jpl5pSQUzbTQ9MlApXE73IzmR7i+q3jfjqmGJXYhJ3jIBMsKu1JvzSUg95bZFC4iJVwARm8fmwkcInViHf5ICYI4CeHbiVkJJRZJMIDgn4FbCPAQLK0lCCUWYQTAq5Xb7MVbH2LBtknXi4UGmYfE0bE9S22088jAe6DrDdn2IaepSlcIKlx0unw3sJKYUv2HWayrxhVu4m6T/iIJpe1b21N/xjbZnYph29e4jO6Plhizz4xO4hJkafcHkXMeLVk62MXnygghzlcb99ZRlLYSsvVZa9SViGmOFxvxxSP1lqtL+K83M4QU8ZgfWr8GEiq2v0WQHfYFIfrnTxX8drU1vqW5Pg8ngQDzOZ65jz8mKhNnVdR+lUzBbeDbK53b8vmRPMSvOOkVzeaCNd7AaWSesUdkNChqyyu96d6TPc+NxWUMndgKi2u95Ocz+lmz3NZf9E3aFHd/yZBlS7V7N2gq1AQAWuBSX0H0q0bjOtZRCE/5cw/EC4b13MYJKxvf96/iwfzhHI9EeQdUF7tJWTc+o3rae66w3+X8Up243qhCBPPkGXj59q+RevYnetBf13hatyHfztd3H60XV2q4UBemegSIEle8Sv+YFoSDMQzQCTGBilZltNVboYmdkpgzgAZt/bkw75PqlSeoderPQm8F61SN6Hr9cx2kfOPpDvoUjoPO+9vavSQQWQ41xM1D8h6vfdmlbRclMxoql7vvw7GLReQQDrqvDfwv5MitswB8f3cEe9BldKDMLVckPSG50929obGwtR6uuS8uiDh0mWwMLW6jmSEuhdztL4JtB4PRNO11i90lY+ACBKIIYIgc5LeSmREkGDi95BiJJCZCGJwEJOmCwII8xxvvRDKaSDaBjF7klhZJrzaweIuQp0QgDxhzlHuf427B75oIA0RZK9AhfUiMKF2U0QQt2+110kiSIfUejaI8zb2m346MsdKHwSx5GQXx84b24TVwnmOGIjcpbTWqYYJ657j0RjIqjO+I9sLiSYTBJmTYBnYQo1Qizj3jVni7nJYvyNUVZwM4pqyGSKIIIYE4jbTV2pNH3BobE7cDmXKKqed38QtsRxmtbiUxkBkgGzqo70jwKkgmgpyurXD4J58I3WEdpgn5qS8t/VBnpkgpC5d/S2Q7gAIqZqWHshUAJL1JCWWqFyf4tXKwV7NB8kVCEld55fXx5aAJPtnfgxEkEFMOQhN02DHQQwJZE52Wgd1JtupeM9YEQTvfo9qf8dehxzpIF0xiKLpserICRTKNstWg5QeLlZEP4zlJ4OEpB4pY+XnjyQtzDedtODIzroLRNLh71lfH9gvU9Q9KduUrEPZ+wv4xA0Fln3Y/9Hmn7+SeZ8tcI4RXDLDZDuwo6NGqKwvL5xQyW6pdyGgx9k/2nEtSCv30EHvfHZjGFL7UenxF75ScvI3pemngTKZqP3DZuTCFHw2xoI5U5w2HP2ez9KxqYQRVT5NtOQDcrqs1sePNsfdnCM71T/j9Dt+R/H4Dz1sMKm6TMqOAAAAAElFTkSuQmCC;fontSize=13;" vertex="1" parent="1">
          <mxGeometry x="668.28" y="210.17" width="42.43" height="42.43" as="geometry" />
        </mxCell>
        <mxCell id="HgpjItm5ChHet3baD9MJ-97" value="" style="shape=image;verticalLabelPosition=bottom;labelBackgroundColor=default;verticalAlign=top;aspect=fixed;imageAspect=0;image=data:image/png,iVBORw0KGgoAAAANSUhEUgAAAMgAAADIBAMAAABfdrOtAAAAD1BMVEVHcEw/hiQ/hiQ/hiQ/hiSp6tK/AAAABHRSTlMAc8AsHAYLPgAAB2RJREFUeNrtXG2WoyoQDdALMIYFqGEBJHEBLXH/a3p2EpWPKiiQmTnvnObf9ESvVVRdqi7i6fQ7fse/HY/beRjUvA4z9OeLrnh/sdx/BocZzo8qCBjABtRfDkLcEgjHcUSrZuoYLoUQc9YwZ/2nIV4wmdbc1VwycmBAM5ZwPV8e6zifWzAmel1sxpIOGkygEMk0JWYk4lP4UU5ymXTNv+Tn6zV5gXKMoHr45pjf0zHyAt/xck/F6HNzi7U0j8lyiJfTFAHlvnnqejpKRVgksw2jfDXajEHusU1Ir4+sPyrqME4N8wTKOrE68ggHMXaUJ27IYYw9SAFTVDWM1SlXJLSmSvXNC8XA3jK6Dsgn4zTox+up1njdroOmxNQrCBkUX6KuIe+HniCQpiLIiIHULNA54P7qIF8ACAOj4aC7gkCqmIrb/UCQijPPwYdWVU0RMA9X5Mftbt8IPXf1SAW42bqe1UBpsXuN81xr1ZJoxTJSi8yMQreBMvR4RWTVbtB6wjMqZmK9ngDJbv+8Gf8McJUxx2CCjhxeyrjbYpW3y+YGLrRvrueFEoBnhNEcB9EnpoKeNF+4WMKTw0z4CQehoOZao40P0Gj3n4xAQBogRDaTlj7+vPeiSx+PCArdmttPmDjfKcrK5Ain74iAdEDa5ukejcVf3zCtdVhaZUsrEiZ0H7tVpVb4fvFo2PUiGzIQvB5QwRUDOFVUebBBYzXk+gnMtSiQgbMV6bR4rFoBs2K5fxOrVjSteA3BPiPFaQypelnNBgW7GatZcmMgVet6HgPRFUEmLOpqVdxYPmBJWtydPDGQ7v8EgjA9ys7FIF0WemF/0mX50Y30NKfEguiLBCJJ3cUcA0k2jXdSA4snNieAvBtO2s90Dt9Atb8uY3qUOcUjv7PElw2GVfsXv3VOhjruFIEpesbTLdKTgk8vCOL+URBBIoEKBaerHgnibk8EBErT0X1u4p5ShDwgwlFuxCpahzzisQFQJ/MiVtH6cBkH+QZ1imeoW0S3QCKrBmCk9Jpl5pSQUzbTQ9MlApXE73IzmR7i+q3jfjqmGJXYhJ3jIBMsKu1JvzSUg95bZFC4iJVwARm8fmwkcInViHf5ICYI4CeHbiVkJJRZJMIDgn4FbCPAQLK0lCCUWYQTAq5Xb7MVbH2LBtknXi4UGmYfE0bE9S22088jAe6DrDdn2IaepSlcIKlx0unw3sJKYUv2HWayrxhVu4m6T/iIJpe1b21N/xjbZnYph29e4jO6Plhizz4xO4hJkafcHkXMeLVk62MXnygghzlcb99ZRlLYSsvVZa9SViGmOFxvxxSP1lqtL+K83M4QU8ZgfWr8GEiq2v0WQHfYFIfrnTxX8drU1vqW5Pg8ngQDzOZ65jz8mKhNnVdR+lUzBbeDbK53b8vmRPMSvOOkVzeaCNd7AaWSesUdkNChqyyu96d6TPc+NxWUMndgKi2u95Ocz+lmz3NZf9E3aFHd/yZBlS7V7N2gq1AQAWuBSX0H0q0bjOtZRCE/5cw/EC4b13MYJKxvf96/iwfzhHI9EeQdUF7tJWTc+o3rae66w3+X8Up243qhCBPPkGXj59q+RevYnetBf13hatyHfztd3H60XV2q4UBemegSIEle8Sv+YFoSDMQzQCTGBilZltNVboYmdkpgzgAZt/bkw75PqlSeoderPQm8F61SN6Hr9cx2kfOPpDvoUjoPO+9vavSQQWQ41xM1D8h6vfdmlbRclMxoql7vvw7GLReQQDrqvDfwv5MitswB8f3cEe9BldKDMLVckPSG50929obGwtR6uuS8uiDh0mWwMLW6jmSEuhdztL4JtB4PRNO11i90lY+ACBKIIYIgc5LeSmREkGDi95BiJJCZCGJwEJOmCwII8xxvvRDKaSDaBjF7klhZJrzaweIuQp0QgDxhzlHuf427B75oIA0RZK9AhfUiMKF2U0QQt2+110kiSIfUejaI8zb2m346MsdKHwSx5GQXx84b24TVwnmOGIjcpbTWqYYJ657j0RjIqjO+I9sLiSYTBJmTYBnYQo1Qizj3jVni7nJYvyNUVZwM4pqyGSKIIIYE4jbTV2pNH3BobE7cDmXKKqed38QtsRxmtbiUxkBkgGzqo70jwKkgmgpyurXD4J58I3WEdpgn5qS8t/VBnpkgpC5d/S2Q7gAIqZqWHshUAJL1JCWWqFyf4tXKwV7NB8kVCEld55fXx5aAJPtnfgxEkEFMOQhN02DHQQwJZE52Wgd1JtupeM9YEQTvfo9qf8dehxzpIF0xiKLpserICRTKNstWg5QeLlZEP4zlJ4OEpB4pY+XnjyQtzDedtODIzroLRNLh71lfH9gvU9Q9KduUrEPZ+wv4xA0Fln3Y/9Hmn7+SeZ8tcI4RXDLDZDuwo6NGqKwvL5xQyW6pdyGgx9k/2nEtSCv30EHvfHZjGFL7UenxF75ScvI3pemngTKZqP3DZuTCFHw2xoI5U5w2HP2ez9KxqYQRVT5NtOQDcrqs1sePNsfdnCM71T/j9Dt+R/H4Dz1sMKm6TMqOAAAAAElFTkSuQmCC;fontSize=13;" vertex="1" parent="1">
          <mxGeometry x="668.28" y="103.16999999999999" width="42.43" height="42.43" as="geometry" />
        </mxCell>
        <mxCell id="HgpjItm5ChHet3baD9MJ-98" value="" style="shape=image;verticalLabelPosition=bottom;labelBackgroundColor=default;verticalAlign=top;aspect=fixed;imageAspect=0;image=data:image/png,iVBORw0KGgoAAAANSUhEUgAAAMgAAADIBAMAAABfdrOtAAAAD1BMVEVHcEw/hiQ/hiQ/hiQ/hiSp6tK/AAAABHRSTlMAc8AsHAYLPgAAB2RJREFUeNrtXG2WoyoQDdALMIYFqGEBJHEBLXH/a3p2EpWPKiiQmTnvnObf9ESvVVRdqi7i6fQ7fse/HY/beRjUvA4z9OeLrnh/sdx/BocZzo8qCBjABtRfDkLcEgjHcUSrZuoYLoUQc9YwZ/2nIV4wmdbc1VwycmBAM5ZwPV8e6zifWzAmel1sxpIOGkygEMk0JWYk4lP4UU5ymXTNv+Tn6zV5gXKMoHr45pjf0zHyAt/xck/F6HNzi7U0j8lyiJfTFAHlvnnqejpKRVgksw2jfDXajEHusU1Ir4+sPyrqME4N8wTKOrE68ggHMXaUJ27IYYw9SAFTVDWM1SlXJLSmSvXNC8XA3jK6Dsgn4zTox+up1njdroOmxNQrCBkUX6KuIe+HniCQpiLIiIHULNA54P7qIF8ACAOj4aC7gkCqmIrb/UCQijPPwYdWVU0RMA9X5Mftbt8IPXf1SAW42bqe1UBpsXuN81xr1ZJoxTJSi8yMQreBMvR4RWTVbtB6wjMqZmK9ngDJbv+8Gf8McJUxx2CCjhxeyrjbYpW3y+YGLrRvrueFEoBnhNEcB9EnpoKeNF+4WMKTw0z4CQehoOZao40P0Gj3n4xAQBogRDaTlj7+vPeiSx+PCArdmttPmDjfKcrK5Ain74iAdEDa5ukejcVf3zCtdVhaZUsrEiZ0H7tVpVb4fvFo2PUiGzIQvB5QwRUDOFVUebBBYzXk+gnMtSiQgbMV6bR4rFoBs2K5fxOrVjSteA3BPiPFaQypelnNBgW7GatZcmMgVet6HgPRFUEmLOpqVdxYPmBJWtydPDGQ7v8EgjA9ys7FIF0WemF/0mX50Y30NKfEguiLBCJJ3cUcA0k2jXdSA4snNieAvBtO2s90Dt9Atb8uY3qUOcUjv7PElw2GVfsXv3VOhjruFIEpesbTLdKTgk8vCOL+URBBIoEKBaerHgnibk8EBErT0X1u4p5ShDwgwlFuxCpahzzisQFQJ/MiVtH6cBkH+QZ1imeoW0S3QCKrBmCk9Jpl5pSQUzbTQ9MlApXE73IzmR7i+q3jfjqmGJXYhJ3jIBMsKu1JvzSUg95bZFC4iJVwARm8fmwkcInViHf5ICYI4CeHbiVkJJRZJMIDgn4FbCPAQLK0lCCUWYQTAq5Xb7MVbH2LBtknXi4UGmYfE0bE9S22088jAe6DrDdn2IaepSlcIKlx0unw3sJKYUv2HWayrxhVu4m6T/iIJpe1b21N/xjbZnYph29e4jO6Plhizz4xO4hJkafcHkXMeLVk62MXnygghzlcb99ZRlLYSsvVZa9SViGmOFxvxxSP1lqtL+K83M4QU8ZgfWr8GEiq2v0WQHfYFIfrnTxX8drU1vqW5Pg8ngQDzOZ65jz8mKhNnVdR+lUzBbeDbK53b8vmRPMSvOOkVzeaCNd7AaWSesUdkNChqyyu96d6TPc+NxWUMndgKi2u95Ocz+lmz3NZf9E3aFHd/yZBlS7V7N2gq1AQAWuBSX0H0q0bjOtZRCE/5cw/EC4b13MYJKxvf96/iwfzhHI9EeQdUF7tJWTc+o3rae66w3+X8Up243qhCBPPkGXj59q+RevYnetBf13hatyHfztd3H60XV2q4UBemegSIEle8Sv+YFoSDMQzQCTGBilZltNVboYmdkpgzgAZt/bkw75PqlSeoderPQm8F61SN6Hr9cx2kfOPpDvoUjoPO+9vavSQQWQ41xM1D8h6vfdmlbRclMxoql7vvw7GLReQQDrqvDfwv5MitswB8f3cEe9BldKDMLVckPSG50929obGwtR6uuS8uiDh0mWwMLW6jmSEuhdztL4JtB4PRNO11i90lY+ACBKIIYIgc5LeSmREkGDi95BiJJCZCGJwEJOmCwII8xxvvRDKaSDaBjF7klhZJrzaweIuQp0QgDxhzlHuf427B75oIA0RZK9AhfUiMKF2U0QQt2+110kiSIfUejaI8zb2m346MsdKHwSx5GQXx84b24TVwnmOGIjcpbTWqYYJ657j0RjIqjO+I9sLiSYTBJmTYBnYQo1Qizj3jVni7nJYvyNUVZwM4pqyGSKIIIYE4jbTV2pNH3BobE7cDmXKKqed38QtsRxmtbiUxkBkgGzqo70jwKkgmgpyurXD4J58I3WEdpgn5qS8t/VBnpkgpC5d/S2Q7gAIqZqWHshUAJL1JCWWqFyf4tXKwV7NB8kVCEld55fXx5aAJPtnfgxEkEFMOQhN02DHQQwJZE52Wgd1JtupeM9YEQTvfo9qf8dehxzpIF0xiKLpserICRTKNstWg5QeLlZEP4zlJ4OEpB4pY+XnjyQtzDedtODIzroLRNLh71lfH9gvU9Q9KduUrEPZ+wv4xA0Fln3Y/9Hmn7+SeZ8tcI4RXDLDZDuwo6NGqKwvL5xQyW6pdyGgx9k/2nEtSCv30EHvfHZjGFL7UenxF75ScvI3pemngTKZqP3DZuTCFHw2xoI5U5w2HP2ez9KxqYQRVT5NtOQDcrqs1sePNsfdnCM71T/j9Dt+R/H4Dz1sMKm6TMqOAAAAAElFTkSuQmCC;fontSize=13;" vertex="1" parent="1">
          <mxGeometry x="400.28" y="323" width="42.43" height="42.43" as="geometry" />
        </mxCell>
      </root>
    </mxGraphModel>
  </diagram>
</mxfile>
